<svg xml:space="preserve" viewBox="293.12 307.2 664.32 323.584" version="1.1" xmlns:xlink="http://www.w3.org/1999/xlink" xmlns="http://www.w3.org/2000/svg" style="max-height: 500px" width="664.32" height="323.584">
<desc>Created with Fabric.js 5.3.0</desc>
<defs>
</defs>
<g id="background-logo" transform="matrix(1 0 0 1 640 512)">
<rect height="1024" width="1280" ry="0" rx="0" y="-512" x="-640" paint-order="stroke" style="stroke: none; stroke-width: 0; stroke-dasharray: none; stroke-linecap: butt; stroke-dashoffset: 0; stroke-linejoin: miter; stroke-miterlimit: 4; fill: rgb(255,255,255); fill-opacity: 0; fill-rule: nonzero; opacity: 1;"/>
</g>
<g id="logo-logo" transform="matrix(1.9211538461538462 0 0 1.9211538461538462 640 425.5253834961966)">
<g paint-order="stroke" style="">
		<g transform="matrix(0.4071506994923127 0 0 0.4071506994923127 0 0)">
<path stroke-linecap="round" d="M 640.0799561 502.4821472 L 558.609253 437.40609739999996 L 475.7854005 503.234375 C 470.5644532 501.6620483 465.4083558 500.0897217 460.3807069 498.3807068 L 558.609253 420.316864 L 655.4201661 497.6289368 C 650.5214233 499.2696228 645.3653564 500.9102783 640.0799561 502.4821472 z M 560.0661011 468.2189331 L 560.0661011 492.87686160000004 L 581.7081299 492.87731940000003 C 581.3936768 486.1569825 578.7924195 480.0831605 574.5359497000001 475.6340943 C 570.7416992 471.5508423 565.6801147 468.948822 560.0661011 468.2189331 z M 553.9205933 468.2312317 C 542.091919 469.8231506 532.9336548 480.11187750000005 532.3330689 492.8759461 L 553.9205933 492.8764039 L 553.9205933 468.2312317 z M 560.0656738 516.8253784 C 566.4284668 516.2946167 572.7603759 515.4945679 579.1361084 514.5286255 C 580.0567627 514.3892212 580.9765625 514.3195191 581.8314819 514.180542 L 581.8314209 499.39398189999997 L 560.0656738 499.39398189999997 L 560.0656738 516.8253784 z M 787.2737427 529.1334229 L 830.0733031999999 482.23870850000003 L 875.5613403 545.0744629000001 C 880.9352417 546.2796021 886.2880858999999 547.6268311000001 891.6464843 548.9390259 L 830.9995116 465.15902710000006 L 774.2894286000001 527.2918091 C 778.6142578 527.892334 782.9300537 528.5005493 787.2737427 529.1334229 z M 755.8826904 531.8766479 L 762.1608886 525.2105712 L 830.7872924000001 450.4877318 L 908.5638427000001 553.2783202 C 914.3355102000002 554.8460692000001 920.0368041000002 556.413391 925.7380370000001 558.0559081 L 834.1657104 437.051178 L 834.1429443 437.0584717 C 790.1508177999999 481.92752079999997 735.8928833 517.1534424 675.7700195 530.2000122 C 730.6422729 516.0604248 780.1247558 482.97131349999995 820.4304199 441.39410399999997 L 803.526001 446.73937989999996 C 754.6153565 487.74890139999997 695.3890991 513.8889770999999 634.2833251999999 525.8652953999999 C 689.1315308 513.0925292999999 742.3996582 488.33666989999995 787.060669 451.9457091999999 L 769.4808961 457.5046691999999 L 711.2714845 380.8414001999999 L 709.1599733 382.63287359999987 C 706.3443605 384.42434699999984 703.4587404 386.2905578999999 700.6431276000001 388.0073242999999 C 680.3018800000001 399.80184939999987 655.5258791000001 406.4456482999999 639.6185304 410.0285950999999 C 631.3130494000001 411.8948059999999 623.0075075000001 412.9399720999999 614.5610963 413.68627939999993 L 658.6932984 448.9951477999999 L 708.3153687 394.80056769999993 L 760.8935547 464.07376109999996 C 758.7821045 465.56680309999996 756.1778565 467.20928969999994 753.2217406999999 469.14974989999996 L 708.1040039 408.90914929999997 L 666.1542357999999 454.96688859999995 L 674.6006468999999 461.75967419999995 L 707.4003294999999 425.85397349999994 L 743.5084227999998 474.1515198999999 C 743.2970580999998 473.8526306999999 733.9360350999998 478.55548109999995 733.0209959999999 478.92864999999995 C 728.7975462999999 480.79486089999995 724.5745848999999 482.66104139999993 720.3515623999998 484.45297249999993 C 706.2039183999998 490.4247436999999 691.8449095999998 495.5754700999999 677.4862669999998 500.8752136999999 L 669.9549559999998 503.5628662999999 C 668.6175536999998 504.0107422999999 667.1397704999998 504.4586182999999 665.7319334999999 504.9064941999999 C 665.3096312999999 505.0554809999999 664.8873289999999 505.2049255999999 664.3945921999998 505.3543701999999 C 659.0451658999998 507.14584359999986 653.4143675999998 508.9373169999999 647.6426390999998 510.6540832999999 C 633.7763670999998 514.8343505999999 618.7845457999998 518.7161865999999 603.3699950999998 521.8513183999999 C 600.9766845999998 522.4486083999999 598.6538085999997 522.8964843999998 596.1904906999997 523.1953735999998 C 595.9091185999997 523.3443603999998 595.5568236999998 523.3443603999998 595.3458861999998 523.4190673999998 C 591.4747313999998 524.1653442999998 587.6031493999998 524.8374023999997 583.5915526999997 525.4346923999998 C 582.6765135999998 525.5836791999998 581.6909789999997 525.6584472999998 580.7054442999997 525.8078612999998 C 572.8222655999997 527.0020140999998 565.0095213999997 528.0472411999998 557.1263426999997 528.5698241999997 C 553.9588621999997 528.3461303999998 550.9323118999997 528.0472411999997 547.7648314999997 527.5993651999997 C 545.2310790999996 527.3756102999997 542.6968382999996 527.0020140999998 540.0225829999997 526.7783202999998 L 530.4497069999998 525.4346923999998 L 528.3382567999997 525.1358031999998 C 508.7006835999997 522.1502074999999 489.2036131999997 517.6710204999998 470.0588072999997 511.99813839999985 C 469.4251402999997 511.84869379999986 468.8619383999997 511.62454219999984 468.2286986999997 511.47555539999985 C 462.5274352999997 509.75833129999984 456.8966368999997 508.04159539999984 451.40631099999973 506.17538449999984 L 451.33587639999973 506.17538449999984 C 424.87063589999974 497.5906676999998 400.9396361999997 488.1853942999998 384.3986510999997 480.4216918999998 C 380.5275267999997 478.5554809999998 376.7972716999997 476.4655761999998 373.4888915999997 474.5993957999998 L 409.9488219999997 425.8539733999998 L 442.8894347999997 461.9838256999998 L 451.40631099999973 455.26531979999976 L 409.17468259999976 408.90914909999975 L 364.05740349999974 469.14974969999975 C 361.10089099999976 467.2092894999997 358.4966429999997 465.56680289999974 356.3851317999997 464.07373039999976 L 408.96331779999974 394.8005675999998 L 458.93768299999977 449.2188414999998 L 503.49215689999977 413.8357237999998 C 494.8343809999998 413.0147093999998 486.17703239999975 411.8948057999998 477.6601561999998 410.0285948999998 C 461.7528380999998 406.4456480999998 436.9772337999998 399.8018492999998 416.6355589999998 388.0073240999998 C 413.8199461999998 386.2905576999998 410.9343260999998 384.4243467999998 408.2596129999998 382.63287339999977 L 406.14813229999976 380.8413999999998 L 347.86828609999975 457.5046689999998 L 330.7056578999998 452.0718991999998 C 375.3348997999998 488.3936154999998 428.5368651999998 513.1062009999998 483.3253477999998 525.8657223999998 C 432.5807188999998 516.1087033999997 383.5179747999998 496.2055966999998 340.1032102999998 466.51492279999974 C 331.0858457999998 460.3417965999997 322.3477476999998 453.80779999999976 313.8948972999998 446.75033539999976 L 297.2684324999998 441.48748749999976 C 337.5578306999998 483.02145359999975 387.0063474999998 516.0709225999998 441.8382261999998 530.2000118999997 C 395.4407346999998 520.4183956999997 352.5913389999998 496.5354610999997 315.1815489999998 466.2028499999997 C 304.1166990999998 457.14611779999973 293.5308836999998 447.5836482999997 283.4498289999998 437.11312829999974 L 283.25393669999977 437.05117759999973 L 191.61160269999976 558.0559077999998 C 197.24240099999977 556.4133906999998 202.94364919999975 554.8460688999998 208.78581229999978 553.2783198999998 L 286.49185169999976 450.4877314999998 L 350.4025266999997 519.9851069999999 L 362.34545879999973 532.1769404999999 C 283.8652646999997 542.5531001999999 202.02860999999973 556.0402216999998 128.47509749999972 587.6909785999999 L 189.3592069999997 577.0910639999998 C 230.6053312999997 569.9246821999999 271.9923704999997 563.1318964999998 313.5198667999997 558.2796015999999 C 353.9218137999997 553.4277338999999 394.6047361999997 551.7105097999998 435.1471555999997 549.2474970999999 C 477.30834939999966 546.7092280999999 519.4695432999997 545.4403682 561.7011716999997 545.5897822999999 C 644.2642820999997 545.8882441999999 726.5455930999997 549.6953730999999 808.5451047999996 559.6979365999999 C 848.4538571999997 564.6249386 888.2926023999996 570.2982784 927.9199826999997 577.091064 L 988.8741452999997 587.6909786 C 915.1801147 555.9655151 834.5042114 542.1033936 755.8826904 531.8766479 z M 532.2093506 514.1801147 L 541.1481323 515.4348754 C 543.6453857 515.6435546 546.0116577 515.9925536000001 548.3774414000001 516.2016601 C 550.2526855000001 516.4663696 552.0836182 516.6048583 553.9201660000001 516.7757568000001 L 553.9205932000001 499.3935241000001 L 532.2093505000001 499.3930969000001 L 532.2093505000001 514.1801147 z M 330.0531006 529.1334229 C 334.3963928 528.5005494000001 338.711731 527.8914185 343.0357056 527.2913208 L 286.33074949999997 465.1590271 L 225.68293759999997 548.9403687 C 231.04093929999996 547.6282349 236.39335629999997 546.2818604 241.76768489999998 545.0758667 L 287.256958 482.238678 L 330.0531006 529.1334229 z M 694.09729 485.7966003 L 559.237793 377.8552856 L 422.1259155 486.9907532 C 429.3049926 489.8274231 437.32910150000004 492.7388001 446.1978149 495.7244568 L 558.6745605 406.2962036 L 669.8844604 494.6797485 C 678.8236084 491.6188965 686.9182129 488.5585327 694.09729 485.7966003 z" transform="translate(-558.6746213999998, -482.7731321)" paint-order="stroke" style="stroke: none; stroke-width: 1; stroke-dasharray: none; stroke-linecap: butt; stroke-dashoffset: 0; stroke-linejoin: miter; stroke-miterlimit: 4; fill: rgb(170,135,51); fill-rule: nonzero; opacity: 1;"/>
</g>
</g>
</g>
<g id="text-logo" transform="matrix(1.9211538461538462 0 0 1.9211538461538462 638.5749841346154 576.5981968074433)">
<g paint-order="stroke" style="">
		<g id="text-logo-path-0" transform="matrix(1 0 0 1 0 0)">
<path stroke-linecap="round" d="M 16.17 -27.13 L 16.17 -27.13 C 13.42 -27.13 11.27 -26.1 9.68 -23.99 C 8.08 -21.89 7.31 -18.96 7.31 -15.31 L 7.31 -15.31 C 7.31 -11.65 8.04 -8.82 9.5 -6.71 C 10.97 -4.6 13.2 -3.57 16.17 -3.57 L 16.17 -3.57 C 17.42 -3.57 18.62 -3.7 19.78 -3.96 C 20.94 -4.17 22.1 -4.52 23.26 -4.9 L 23.26 -4.9 L 23.26 -0.9 C 22.1 -0.43 20.94 -0.13 19.78 0.09 C 18.58 0.3 17.2 0.43 15.61 0.43 L 15.61 0.43 C 12.64 0.43 10.15 -0.22 8.21 -1.55 C 6.24 -2.84 4.77 -4.69 3.83 -7.05 C 2.84 -9.42 2.37 -12.17 2.37 -15.35 L 2.37 -15.35 C 2.37 -18.45 2.88 -21.2 3.96 -23.56 C 5.03 -25.93 6.58 -27.78 8.64 -29.11 C 10.71 -30.44 13.24 -31.13 16.21 -31.13 L 16.21 -31.13 C 17.63 -31.13 19.09 -30.96 20.51 -30.66 C 21.93 -30.32 23.22 -29.84 24.38 -29.24 L 24.38 -29.24 L 22.7 -25.37 C 21.76 -25.84 20.73 -26.23 19.65 -26.62 C 18.58 -26.96 17.42 -27.13 16.17 -27.13 Z M 63.12 0 L 58.14 0 L 55.26 -8.86 L 44.29 -8.86 L 41.41 0 L 36.42 0 L 47.21 -30.83 L 52.37 -30.83 L 63.12 0 Z M 45.62 -12.9 L 54.01 -12.9 L 51.17 -21.54 C 51.08 -21.89 50.96 -22.36 50.78 -23.01 C 50.57 -23.61 50.4 -24.25 50.22 -24.9 C 50.01 -25.54 49.88 -26.14 49.75 -26.62 L 49.75 -26.62 C 49.54 -25.63 49.32 -24.73 49.11 -23.82 C 48.85 -22.92 48.63 -22.15 48.46 -21.54 L 48.46 -21.54 L 45.62 -12.9 Z M 100.45 -30.7 L 100.45 0 L 95.68 0 L 95.68 -14.02 L 82.43 -14.02 L 82.43 0 L 77.66 0 L 77.66 -30.7 L 82.43 -30.7 L 82.43 -17.97 L 95.68 -17.97 L 95.68 -30.7 L 100.45 -30.7 Z M 132.78 -12.47 L 127.97 -12.47 L 120.92 0 L 115.45 0 L 123.54 -13.46 C 122.59 -13.8 121.69 -14.32 120.87 -14.96 C 120.01 -15.61 119.33 -16.51 118.81 -17.67 C 118.25 -18.83 117.99 -20.3 117.99 -22.06 L 117.99 -22.06 C 117.99 -24.85 118.94 -26.96 120.79 -28.47 C 122.64 -29.97 125.34 -30.7 128.96 -30.7 L 128.96 -30.7 L 137.51 -30.7 L 137.51 0 L 132.78 0 L 132.78 -12.47 Z M 132.78 -16.3 L 132.78 -26.79 L 129.09 -26.79 C 127.02 -26.79 125.47 -26.4 124.44 -25.63 C 123.37 -24.81 122.85 -23.56 122.85 -21.8 L 122.85 -21.8 C 122.85 -20.04 123.37 -18.71 124.44 -17.76 C 125.52 -16.77 127.11 -16.3 129.26 -16.3 L 129.26 -16.3 L 132.78 -16.3 Z" transform="translate(-69.94, 15.35)" paint-order="stroke" style="stroke: none; stroke-width: 0; stroke-dasharray: none; stroke-linecap: butt; stroke-dashoffset: 0; stroke-linejoin: miter; stroke-miterlimit: 4; fill: rgb(172,134,53); fill-rule: nonzero; opacity: 1;"/>
</g>
</g>
</g>
<g id="tagline-908c01a2-096a-472b-8759-ef6adc1327af-logo" transform="matrix(1 0 0 1 328.86775000000006 340.9845215027917)">
<g paint-order="stroke" style="">
		<g id="tagline-908c01a2-096a-472b-8759-ef6adc1327af-logo-path-0" transform="matrix(1 0 0 1 0 0)">
<path stroke-linecap="round" d="" transform="translate(0, 0)" paint-order="stroke" style="stroke: none; stroke-width: 0; stroke-dasharray: none; stroke-linecap: butt; stroke-dashoffset: 0; stroke-linejoin: miter; stroke-miterlimit: 4; fill: rgb(172,134,53); fill-rule: nonzero; opacity: 1;"/>
</g>
</g>
</g>
</svg>