<?xml version="1.0" encoding="UTF-8" standalone="no"?>
<!DOCTYPE svg PUBLIC "-//W3C//DTD SVG 1.1//EN" "http://www.w3.org/Graphics/SVG/1.1/DTD/svg11.dtd">
<svg xmlns="http://www.w3.org/2000/svg" xmlns:xlink="http://www.w3.org/1999/xlink" version="1.1" width="48" height="48" viewBox="0 0 48 48" xml:space="preserve" style="background-color:transparent;">
<desc>Created with Fabric.js 5.3.0</desc>
<defs>
</defs>
<g transform="matrix(0.07204379666505835 0 0 0.07204379666505835 24.49509731437102 24.49489086611984)" id="background-e7d94e91-10ce-4199-a4d9-36fa93f9b1a9">
<rect style="stroke: none; stroke-width: 0; stroke-dasharray: none; stroke-linecap: butt; stroke-dashoffset: 0; stroke-linejoin: miter; stroke-miterlimit: 4; fill: rgb(255,255,255); fill-rule: nonzero; opacity: 1;" paint-order="stroke" x="-340" y="-340" rx="0" ry="0" width="680" height="680"/>
</g>
<g transform="matrix(0.07536889497267643 0 0 0.07536889497267643 24.484879046610693 26.143616133127786)" id="maker-logo">
<g style="" paint-order="stroke">
		<g transform="matrix(1 0 0 1 0 -45.01181239437216)" id="logo-logo">
<g style="" paint-order="stroke">
		<g transform="matrix(0.4071506994923127 0 0 0.4071506994923127 0 0)">
<path style="stroke: none; stroke-width: 1; stroke-dasharray: none; stroke-linecap: butt; stroke-dashoffset: 0; stroke-linejoin: miter; stroke-miterlimit: 4; fill: rgb(170,135,51); fill-rule: nonzero; opacity: 1;" paint-order="stroke" transform=" translate(-558.6746213999998, -482.7731321)" d="M 640.0799561 502.4821472 L 558.609253 437.40609739999996 L 475.7854005 503.234375 C 470.5644532 501.6620483 465.4083558 500.0897217 460.3807069 498.3807068 L 558.609253 420.316864 L 655.4201661 497.6289368 C 650.5214233 499.2696228 645.3653564 500.9102783 640.0799561 502.4821472 z M 560.0661011 468.2189331 L 560.0661011 492.87686160000004 L 581.7081299 492.87731940000003 C 581.3936768 486.1569825 578.7924195 480.0831605 574.5359497000001 475.6340943 C 570.7416992 471.5508423 565.6801147 468.948822 560.0661011 468.2189331 z M 553.9205933 468.2312317 C 542.091919 469.8231506 532.9336548 480.11187750000005 532.3330689 492.8759461 L 553.9205933 492.8764039 L 553.9205933 468.2312317 z M 560.0656738 516.8253784 C 566.4284668 516.2946167 572.7603759 515.4945679 579.1361084 514.5286255 C 580.0567627 514.3892212 580.9765625 514.3195191 581.8314819 514.180542 L 581.8314209 499.39398189999997 L 560.0656738 499.39398189999997 L 560.0656738 516.8253784 z M 787.2737427 529.1334229 L 830.0733031999999 482.23870850000003 L 875.5613403 545.0744629000001 C 880.9352417 546.2796021 886.2880858999999 547.6268311000001 891.6464843 548.9390259 L 830.9995116 465.15902710000006 L 774.2894286000001 527.2918091 C 778.6142578 527.892334 782.9300537 528.5005493 787.2737427 529.1334229 z M 755.8826904 531.8766479 L 762.1608886 525.2105712 L 830.7872924000001 450.4877318 L 908.5638427000001 553.2783202 C 914.3355102000002 554.8460692000001 920.0368041000002 556.413391 925.7380370000001 558.0559081 L 834.1657104 437.051178 L 834.1429443 437.0584717 C 790.1508177999999 481.92752079999997 735.8928833 517.1534424 675.7700195 530.2000122 C 730.6422729 516.0604248 780.1247558 482.97131349999995 820.4304199 441.39410399999997 L 803.526001 446.73937989999996 C 754.6153565 487.74890139999997 695.3890991 513.8889770999999 634.2833251999999 525.8652953999999 C 689.1315308 513.0925292999999 742.3996582 488.33666989999995 787.060669 451.9457091999999 L 769.4808961 457.5046691999999 L 711.2714845 380.8414001999999 L 709.1599733 382.63287359999987 C 706.3443605 384.42434699999984 703.4587404 386.2905578999999 700.6431276000001 388.0073242999999 C 680.3018800000001 399.80184939999987 655.5258791000001 406.4456482999999 639.6185304 410.0285950999999 C 631.3130494000001 411.8948059999999 623.0075075000001 412.9399720999999 614.5610963 413.68627939999993 L 658.6932984 448.9951477999999 L 708.3153687 394.80056769999993 L 760.8935547 464.07376109999996 C 758.7821045 465.56680309999996 756.1778565 467.20928969999994 753.2217406999999 469.14974989999996 L 708.1040039 408.90914929999997 L 666.1542357999999 454.96688859999995 L 674.6006468999999 461.75967419999995 L 707.4003294999999 425.85397349999994 L 743.5084227999998 474.1515198999999 C 743.2970580999998 473.8526306999999 733.9360350999998 478.55548109999995 733.0209959999999 478.92864999999995 C 728.7975462999999 480.79486089999995 724.5745848999999 482.66104139999993 720.3515623999998 484.45297249999993 C 706.2039183999998 490.4247436999999 691.8449095999998 495.5754700999999 677.4862669999998 500.8752136999999 L 669.9549559999998 503.5628662999999 C 668.6175536999998 504.0107422999999 667.1397704999998 504.4586182999999 665.7319334999999 504.9064941999999 C 665.3096312999999 505.0554809999999 664.8873289999999 505.2049255999999 664.3945921999998 505.3543701999999 C 659.0451658999998 507.14584359999986 653.4143675999998 508.9373169999999 647.6426390999998 510.6540832999999 C 633.7763670999998 514.8343505999999 618.7845457999998 518.7161865999999 603.3699950999998 521.8513183999999 C 600.9766845999998 522.4486083999999 598.6538085999997 522.8964843999998 596.1904906999997 523.1953735999998 C 595.9091185999997 523.3443603999998 595.5568236999998 523.3443603999998 595.3458861999998 523.4190673999998 C 591.4747313999998 524.1653442999998 587.6031493999998 524.8374023999997 583.5915526999997 525.4346923999998 C 582.6765135999998 525.5836791999998 581.6909789999997 525.6584472999998 580.7054442999997 525.8078612999998 C 572.8222655999997 527.0020140999998 565.0095213999997 528.0472411999998 557.1263426999997 528.5698241999997 C 553.9588621999997 528.3461303999998 550.9323118999997 528.0472411999997 547.7648314999997 527.5993651999997 C 545.2310790999996 527.3756102999997 542.6968382999996 527.0020140999998 540.0225829999997 526.7783202999998 L 530.4497069999998 525.4346923999998 L 528.3382567999997 525.1358031999998 C 508.7006835999997 522.1502074999999 489.2036131999997 517.6710204999998 470.0588072999997 511.99813839999985 C 469.4251402999997 511.84869379999986 468.8619383999997 511.62454219999984 468.2286986999997 511.47555539999985 C 462.5274352999997 509.75833129999984 456.8966368999997 508.04159539999984 451.40631099999973 506.17538449999984 L 451.33587639999973 506.17538449999984 C 424.87063589999974 497.5906676999998 400.9396361999997 488.1853942999998 384.3986510999997 480.4216918999998 C 380.5275267999997 478.5554809999998 376.7972716999997 476.4655761999998 373.4888915999997 474.5993957999998 L 409.9488219999997 425.8539733999998 L 442.8894347999997 461.9838256999998 L 451.40631099999973 455.26531979999976 L 409.17468259999976 408.90914909999975 L 364.05740349999974 469.14974969999975 C 361.10089099999976 467.2092894999997 358.4966429999997 465.56680289999974 356.3851317999997 464.07373039999976 L 408.96331779999974 394.8005675999998 L 458.93768299999977 449.2188414999998 L 503.49215689999977 413.8357237999998 C 494.8343809999998 413.0147093999998 486.17703239999975 411.8948057999998 477.6601561999998 410.0285948999998 C 461.7528380999998 406.4456480999998 436.9772337999998 399.8018492999998 416.6355589999998 388.0073240999998 C 413.8199461999998 386.2905576999998 410.9343260999998 384.4243467999998 408.2596129999998 382.63287339999977 L 406.14813229999976 380.8413999999998 L 347.86828609999975 457.5046689999998 L 330.7056578999998 452.0718991999998 C 375.3348997999998 488.3936154999998 428.5368651999998 513.1062009999998 483.3253477999998 525.8657223999998 C 432.5807188999998 516.1087033999997 383.5179747999998 496.2055966999998 340.1032102999998 466.51492279999974 C 331.0858457999998 460.3417965999997 322.3477476999998 453.80779999999976 313.8948972999998 446.75033539999976 L 297.2684324999998 441.48748749999976 C 337.5578306999998 483.02145359999975 387.0063474999998 516.0709225999998 441.8382261999998 530.2000118999997 C 395.4407346999998 520.4183956999997 352.5913389999998 496.5354610999997 315.1815489999998 466.2028499999997 C 304.1166990999998 457.14611779999973 293.5308836999998 447.5836482999997 283.4498289999998 437.11312829999974 L 283.25393669999977 437.05117759999973 L 191.61160269999976 558.0559077999998 C 197.24240099999977 556.4133906999998 202.94364919999975 554.8460688999998 208.78581229999978 553.2783198999998 L 286.49185169999976 450.4877314999998 L 350.4025266999997 519.9851069999999 L 362.34545879999973 532.1769404999999 C 283.8652646999997 542.5531001999999 202.02860999999973 556.0402216999998 128.47509749999972 587.6909785999999 L 189.3592069999997 577.0910639999998 C 230.6053312999997 569.9246821999999 271.9923704999997 563.1318964999998 313.5198667999997 558.2796015999999 C 353.9218137999997 553.4277338999999 394.6047361999997 551.7105097999998 435.1471555999997 549.2474970999999 C 477.30834939999966 546.7092280999999 519.4695432999997 545.4403682 561.7011716999997 545.5897822999999 C 644.2642820999997 545.8882441999999 726.5455930999997 549.6953730999999 808.5451047999996 559.6979365999999 C 848.4538571999997 564.6249386 888.2926023999996 570.2982784 927.9199826999997 577.091064 L 988.8741452999997 587.6909786 C 915.1801147 555.9655151 834.5042114 542.1033936 755.8826904 531.8766479 z M 532.2093506 514.1801147 L 541.1481323 515.4348754 C 543.6453857 515.6435546 546.0116577 515.9925536000001 548.3774414000001 516.2016601 C 550.2526855000001 516.4663696 552.0836182 516.6048583 553.9201660000001 516.7757568000001 L 553.9205932000001 499.3935241000001 L 532.2093505000001 499.3930969000001 L 532.2093505000001 514.1801147 z M 330.0531006 529.1334229 C 334.3963928 528.5005494000001 338.711731 527.8914185 343.0357056 527.2913208 L 286.33074949999997 465.1590271 L 225.68293759999997 548.9403687 C 231.04093929999996 547.6282349 236.39335629999997 546.2818604 241.76768489999998 545.0758667 L 287.256958 482.238678 L 330.0531006 529.1334229 z M 694.09729 485.7966003 L 559.237793 377.8552856 L 422.1259155 486.9907532 C 429.3049926 489.8274231 437.32910150000004 492.7388001 446.1978149 495.7244568 L 558.6745605 406.2962036 L 669.8844604 494.6797485 C 678.8236084 491.6188965 686.9182129 488.5585327 694.09729 485.7966003 z" stroke-linecap="round"/>
</g>
</g>
</g>
		<g transform="matrix(1 0 0 1 -0.7417499999999961 33.624687026897405)" id="text-logo">
<g style="" paint-order="stroke">
		<g transform="matrix(1 0 0 1 0 0)" id="text-logo-path-0">
<path style="stroke: none; stroke-width: 0; stroke-dasharray: none; stroke-linecap: butt; stroke-dashoffset: 0; stroke-linejoin: miter; stroke-miterlimit: 4; fill: rgb(172,134,53); fill-rule: nonzero; opacity: 1;" paint-order="stroke" transform=" translate(-69.94, 15.35)" d="M 16.17 -27.13 L 16.17 -27.13 C 13.42 -27.13 11.27 -26.1 9.68 -23.99 C 8.08 -21.89 7.31 -18.96 7.31 -15.31 L 7.31 -15.31 C 7.31 -11.65 8.04 -8.82 9.5 -6.71 C 10.97 -4.6 13.2 -3.57 16.17 -3.57 L 16.17 -3.57 C 17.42 -3.57 18.62 -3.7 19.78 -3.96 C 20.94 -4.17 22.1 -4.52 23.26 -4.9 L 23.26 -4.9 L 23.26 -0.9 C 22.1 -0.43 20.94 -0.13 19.78 0.09 C 18.58 0.3 17.2 0.43 15.61 0.43 L 15.61 0.43 C 12.64 0.43 10.15 -0.22 8.21 -1.55 C 6.24 -2.84 4.77 -4.69 3.83 -7.05 C 2.84 -9.42 2.37 -12.17 2.37 -15.35 L 2.37 -15.35 C 2.37 -18.45 2.88 -21.2 3.96 -23.56 C 5.03 -25.93 6.58 -27.78 8.64 -29.11 C 10.71 -30.44 13.24 -31.13 16.21 -31.13 L 16.21 -31.13 C 17.63 -31.13 19.09 -30.96 20.51 -30.66 C 21.93 -30.32 23.22 -29.84 24.38 -29.24 L 24.38 -29.24 L 22.7 -25.37 C 21.76 -25.84 20.73 -26.23 19.65 -26.62 C 18.58 -26.96 17.42 -27.13 16.17 -27.13 Z M 63.12 0 L 58.14 0 L 55.26 -8.86 L 44.29 -8.86 L 41.41 0 L 36.42 0 L 47.21 -30.83 L 52.37 -30.83 L 63.12 0 Z M 45.62 -12.9 L 54.01 -12.9 L 51.17 -21.54 C 51.08 -21.89 50.96 -22.36 50.78 -23.01 C 50.57 -23.61 50.4 -24.25 50.22 -24.9 C 50.01 -25.54 49.88 -26.14 49.75 -26.62 L 49.75 -26.62 C 49.54 -25.63 49.32 -24.73 49.11 -23.82 C 48.85 -22.92 48.63 -22.15 48.46 -21.54 L 48.46 -21.54 L 45.62 -12.9 Z M 100.45 -30.7 L 100.45 0 L 95.68 0 L 95.68 -14.02 L 82.43 -14.02 L 82.43 0 L 77.66 0 L 77.66 -30.7 L 82.43 -30.7 L 82.43 -17.97 L 95.68 -17.97 L 95.68 -30.7 L 100.45 -30.7 Z M 132.78 -12.47 L 127.97 -12.47 L 120.92 0 L 115.45 0 L 123.54 -13.46 C 122.59 -13.8 121.69 -14.32 120.87 -14.96 C 120.01 -15.61 119.33 -16.51 118.81 -17.67 C 118.25 -18.83 117.99 -20.3 117.99 -22.06 L 117.99 -22.06 C 117.99 -24.85 118.94 -26.96 120.79 -28.47 C 122.64 -29.97 125.34 -30.7 128.96 -30.7 L 128.96 -30.7 L 137.51 -30.7 L 137.51 0 L 132.78 0 L 132.78 -12.47 Z M 132.78 -16.3 L 132.78 -26.79 L 129.09 -26.79 C 127.02 -26.79 125.47 -26.4 124.44 -25.63 C 123.37 -24.81 122.85 -23.56 122.85 -21.8 L 122.85 -21.8 C 122.85 -20.04 123.37 -18.71 124.44 -17.76 C 125.52 -16.77 127.11 -16.3 129.26 -16.3 L 129.26 -16.3 L 132.78 -16.3 Z" stroke-linecap="round"/>
</g>
</g>
</g>
		<g transform="matrix(1 0 0 1 3.867749999999999 80.98452150279171)" id="tagline-908c01a2-096a-472b-8759-ef6adc1327af-logo">
<g style="" paint-order="stroke">
		<g transform="matrix(1 0 0 1 0 0)" id="tagline-908c01a2-096a-472b-8759-ef6adc1327af-logo-path-0">
<path style="stroke: none; stroke-width: 0; stroke-dasharray: none; stroke-linecap: butt; stroke-dashoffset: 0; stroke-linejoin: miter; stroke-miterlimit: 4; fill: rgb(172,134,53); fill-rule: nonzero; opacity: 1;" paint-order="stroke" transform=" translate(0, 0)" d="" stroke-linecap="round"/>
</g>
</g>
</g>
</g>
</g>
<g transform="matrix(0.07204379666505835 0 0 0.07204379666505835 23.228177027948917 26.22835548764116)" id="text-logo">
<g style="" paint-order="stroke">
		<g transform="matrix(1 0 0 1 0 0)" id="text-logo-path-0">
<path style="stroke: none; stroke-width: 0; stroke-dasharray: none; stroke-linecap: butt; stroke-dashoffset: 0; stroke-linejoin: miter; stroke-miterlimit: 4; fill: rgb(172,132,52); fill-rule: nonzero; opacity: 1;" paint-order="stroke" transform=" translate(-78.555, 6.050000000000001)" d="M 7.36 -8.46 L 13.87 0 L 10.9 0 L 4.55 -8.33 L 4.55 0 L 2 0 L 2 -16.42 L 4.55 -16.42 L 4.55 -8.46 L 10.76 -16.42 L 13.57 -16.42 L 7.36 -8.46 Z M 14.19 -12.4 L 20.4 -12.4 L 20.4 -7.41 L 23.14 -7.41 C 24.82 -7.41 26.06 -7.11 26.84 -6.51 C 27.6 -5.91 27.99 -5.01 27.99 -3.84 L 27.99 -3.84 C 27.99 -2.67 27.62 -1.72 26.89 -1.03 C 26.13 -0.34 24.86 0 23.09 0 L 23.09 0 L 17.89 0 L 17.89 -10.44 L 14.19 -10.44 L 14.19 -12.4 Z M 22.98 -5.5 L 22.98 -5.5 L 20.4 -5.5 L 20.4 -1.84 L 23.05 -1.84 C 23.8 -1.84 24.43 -1.98 24.86 -2.28 C 25.3 -2.58 25.51 -3.06 25.51 -3.75 L 25.51 -3.75 C 25.51 -4.42 25.3 -4.85 24.89 -5.13 C 24.47 -5.38 23.83 -5.5 22.98 -5.5 Z M 44.8 -12.4 L 47.29 -12.4 L 47.29 -1.93 L 49.13 -1.93 L 49.13 4.32 L 46.76 4.32 L 46.76 0 L 30.75 0 L 30.75 -12.4 L 33.23 -12.4 L 33.23 -1.96 L 37.79 -1.96 L 37.79 -12.4 L 40.25 -12.4 L 40.25 -1.96 L 44.8 -1.96 L 44.8 -12.4 Z M 55.91 -12.63 L 55.91 -12.63 C 57.36 -12.63 58.47 -12.28 59.23 -11.62 C 59.96 -10.92 60.33 -9.84 60.33 -8.39 L 60.33 -8.39 L 60.33 0 L 58.56 0 L 58.08 -1.72 L 57.98 -1.72 C 57.48 -1.06 56.95 -0.55 56.4 -0.25 C 55.82 0.07 55.06 0.23 54.07 0.23 L 54.07 0.23 C 53.04 0.23 52.16 -0.07 51.47 -0.69 C 50.76 -1.29 50.42 -2.23 50.42 -3.52 L 50.42 -3.52 C 50.42 -6.03 52.23 -7.34 55.87 -7.47 L 55.87 -7.47 L 57.84 -7.54 L 57.84 -8.23 C 57.84 -9.13 57.66 -9.78 57.29 -10.17 C 56.9 -10.53 56.37 -10.72 55.71 -10.72 L 55.71 -10.72 C 55.13 -10.72 54.58 -10.63 54.03 -10.44 C 53.45 -10.26 52.92 -10.03 52.42 -9.78 L 52.42 -9.78 L 51.66 -11.55 C 52.23 -11.85 52.88 -12.12 53.61 -12.33 C 54.33 -12.54 55.11 -12.63 55.91 -12.63 Z M 57.84 -4.88 L 57.84 -5.96 L 56.35 -5.91 C 55.09 -5.84 54.21 -5.61 53.73 -5.2 C 53.24 -4.78 52.99 -4.21 52.99 -3.5 L 52.99 -3.5 C 52.99 -2.85 53.18 -2.39 53.52 -2.09 C 53.87 -1.79 54.3 -1.66 54.85 -1.66 L 54.85 -1.66 C 55.71 -1.66 56.42 -1.93 56.99 -2.46 C 57.57 -2.99 57.84 -3.79 57.84 -4.88 L 57.84 -4.88 Z M 73.21 -12.63 L 73.21 -12.63 C 74.52 -12.63 75.62 -12.35 76.5 -11.8 C 77.35 -11.25 77.79 -10.44 77.79 -9.36 L 77.79 -9.36 C 77.79 -8.6 77.58 -8 77.19 -7.57 C 76.8 -7.13 76.24 -6.81 75.58 -6.6 L 75.58 -6.6 L 75.58 -6.51 C 76.31 -6.3 76.93 -5.98 77.44 -5.54 C 77.92 -5.11 78.18 -4.42 78.18 -3.47 L 78.18 -3.47 C 78.18 -2.78 77.99 -2.16 77.62 -1.61 C 77.23 -1.03 76.66 -0.6 75.88 -0.28 C 75.09 0.07 74.11 0.23 72.89 0.23 L 72.89 0.23 C 71.99 0.23 71.21 0.16 70.54 0.02 C 69.85 -0.11 69.25 -0.32 68.77 -0.57 L 68.77 -0.57 L 68.77 -2.69 C 69.25 -2.44 69.85 -2.23 70.54 -2.02 C 71.21 -1.82 71.97 -1.72 72.77 -1.72 L 72.77 -1.72 C 73.65 -1.72 74.36 -1.86 74.91 -2.14 C 75.44 -2.42 75.72 -2.9 75.72 -3.61 L 75.72 -3.61 C 75.72 -4.25 75.46 -4.74 74.96 -5.06 C 74.43 -5.36 73.62 -5.52 72.54 -5.52 L 72.54 -5.52 L 71.05 -5.52 L 71.05 -7.38 L 72.29 -7.38 C 73.28 -7.38 74.06 -7.52 74.63 -7.77 C 75.19 -8.03 75.46 -8.49 75.46 -9.11 L 75.46 -9.11 C 75.46 -10.17 74.63 -10.7 73 -10.7 L 73 -10.7 C 72.38 -10.7 71.83 -10.63 71.3 -10.51 C 70.77 -10.37 70.24 -10.17 69.67 -9.91 L 69.67 -9.91 L 68.86 -11.75 C 69.53 -12.03 70.2 -12.24 70.91 -12.4 C 71.6 -12.56 72.36 -12.63 73.21 -12.63 Z M 85.51 -12.63 L 85.51 -12.63 C 86.96 -12.63 88.07 -12.28 88.83 -11.62 C 89.56 -10.92 89.93 -9.84 89.93 -8.39 L 89.93 -8.39 L 89.93 0 L 88.16 0 L 87.68 -1.72 L 87.58 -1.72 C 87.08 -1.06 86.55 -0.55 86 -0.25 C 85.42 0.07 84.66 0.23 83.67 0.23 L 83.67 0.23 C 82.64 0.23 81.76 -0.07 81.07 -0.69 C 80.36 -1.29 80.02 -2.23 80.02 -3.52 L 80.02 -3.52 C 80.02 -6.03 81.83 -7.34 85.47 -7.47 L 85.47 -7.47 L 87.45 -7.54 L 87.45 -8.23 C 87.45 -9.13 87.26 -9.78 86.89 -10.17 C 86.5 -10.53 85.97 -10.72 85.31 -10.72 L 85.31 -10.72 C 84.73 -10.72 84.18 -10.63 83.63 -10.44 C 83.05 -10.26 82.52 -10.03 82.02 -9.78 L 82.02 -9.78 L 81.26 -11.55 C 81.83 -11.85 82.48 -12.12 83.21 -12.33 C 83.93 -12.54 84.71 -12.63 85.51 -12.63 Z M 87.45 -4.88 L 87.45 -5.96 L 85.95 -5.91 C 84.69 -5.84 83.81 -5.61 83.33 -5.2 C 82.85 -4.78 82.59 -4.21 82.59 -3.5 L 82.59 -3.5 C 82.59 -2.85 82.78 -2.39 83.12 -2.09 C 83.47 -1.79 83.9 -1.66 84.46 -1.66 L 84.46 -1.66 C 85.31 -1.66 86.02 -1.93 86.59 -2.46 C 87.17 -2.99 87.45 -3.79 87.45 -4.88 L 87.45 -4.88 Z M 99.38 -12.4 L 106.93 -12.4 L 106.93 -10.44 L 101.87 -10.44 L 101.87 0 L 99.38 0 L 99.38 -12.4 Z M 119.58 -6.21 L 119.58 -6.21 C 119.58 -4.16 119.07 -2.58 118.08 -1.45 C 117.07 -0.32 115.71 0.23 113.99 0.23 L 113.99 0.23 C 112.93 0.23 111.99 -0.02 111.18 -0.53 C 110.35 -1.01 109.71 -1.75 109.23 -2.71 C 108.74 -3.66 108.51 -4.83 108.51 -6.21 L 108.51 -6.21 C 108.51 -8.26 109.02 -9.84 110.01 -10.97 C 111 -12.07 112.33 -12.63 114.06 -12.63 L 114.06 -12.63 C 115.14 -12.63 116.08 -12.37 116.91 -11.89 C 117.74 -11.38 118.38 -10.65 118.86 -9.71 C 119.35 -8.76 119.58 -7.59 119.58 -6.21 Z M 111.09 -6.21 L 111.09 -6.21 C 111.09 -4.81 111.32 -3.73 111.78 -2.94 C 112.24 -2.16 113 -1.77 114.03 -1.77 L 114.03 -1.77 C 115.07 -1.77 115.83 -2.16 116.31 -2.94 C 116.77 -3.73 117 -4.81 117 -6.21 L 117 -6.21 C 117 -7.61 116.77 -8.72 116.29 -9.48 C 115.8 -10.23 115.05 -10.6 114.01 -10.6 L 114.01 -10.6 C 112.98 -10.6 112.24 -10.23 111.78 -9.48 C 111.32 -8.72 111.09 -7.61 111.09 -6.21 Z M 127.21 0.23 L 127.21 0.23 C 125.58 0.23 124.25 -0.28 123.26 -1.31 C 122.27 -2.32 121.76 -3.93 121.76 -6.12 L 121.76 -6.12 C 121.76 -7.66 122.01 -8.9 122.5 -9.84 C 122.98 -10.79 123.65 -11.5 124.5 -11.96 C 125.35 -12.4 126.32 -12.63 127.4 -12.63 L 127.4 -12.63 C 128.04 -12.63 128.66 -12.56 129.26 -12.42 C 129.83 -12.28 130.32 -12.12 130.71 -11.91 L 130.71 -11.91 L 129.95 -9.96 C 129.56 -10.12 129.14 -10.28 128.71 -10.4 C 128.27 -10.51 127.83 -10.56 127.42 -10.56 L 127.42 -10.56 C 125.37 -10.56 124.34 -9.08 124.34 -6.14 L 124.34 -6.14 C 124.34 -4.74 124.59 -3.66 125.12 -2.92 C 125.63 -2.19 126.36 -1.82 127.35 -1.82 L 127.35 -1.82 C 127.97 -1.82 128.55 -1.89 129.03 -2.05 C 129.51 -2.21 130 -2.39 130.43 -2.65 L 130.43 -2.65 L 130.43 -0.53 C 130 -0.28 129.54 -0.07 129.03 0.05 C 128.52 0.16 127.93 0.23 127.21 0.23 Z M 141.93 -12.4 L 141.93 -10.44 L 138.09 -10.44 L 138.09 0 L 135.63 0 L 135.63 -10.44 L 131.84 -10.44 L 131.84 -12.4 L 141.93 -12.4 Z M 144.16 -12.4 L 146.51 -12.4 L 146.51 -5.63 C 146.51 -5.41 146.51 -5.08 146.49 -4.65 C 146.46 -4.21 146.44 -3.79 146.42 -3.4 C 146.39 -3.01 146.37 -2.71 146.35 -2.51 L 146.35 -2.51 L 152.17 -12.4 L 155.11 -12.4 L 155.11 0 L 152.79 0 L 152.79 -6.6 C 152.79 -6.9 152.79 -7.25 152.81 -7.68 C 152.83 -8.12 152.83 -8.53 152.86 -8.95 C 152.88 -9.34 152.88 -9.66 152.9 -9.87 L 152.9 -9.87 L 147.13 0 L 144.16 0 L 144.16 -12.4 Z" stroke-linecap="round"/>
</g>
</g>
</g>
</svg>
