<?xml version="1.0" encoding="UTF-8"?>
<svg version="1.1" xmlns="http://www.w3.org/2000/svg" width="500" height="500">
<path d="M0 0 C2.70700839 1.29387846 5.17535637 2.70548325 7.625 4.4375 C8.21539062 4.84871094 8.80578125 5.25992188 9.4140625 5.68359375 C11 7 11 7 13 10 C13 11.32 13 12.64 13 14 C13.7425 13.7525 14.485 13.505 15.25 13.25 C18 13 18 13 20.375 14.5625 C22 17 22 17 22.0625 19.9375 C20.73743136 23.7568155 19.15220335 25.49256551 16 28 C13.5 29.0625 13.5 29.0625 11 29 C8.1875 27.0625 8.1875 27.0625 6 25 C3.3084483 28.06718925 2.6327132 29.92165507 2.70703125 33.984375 C2.71669922 34.91894531 2.72636719 35.85351562 2.73632812 36.81640625 C2.76146484 37.78449219 2.78660156 38.75257813 2.8125 39.75 C2.82603516 40.73355469 2.83957031 41.71710938 2.85351562 42.73046875 C2.88881274 45.15420415 2.93811946 47.57682145 3 50 C3.1853833 49.45730469 3.3707666 48.91460937 3.56176758 48.35546875 C3.81595459 47.64003906 4.0701416 46.92460937 4.33203125 46.1875 C4.57928955 45.47980469 4.82654785 44.77210938 5.08129883 44.04296875 C6.47665789 40.94002838 8.44522776 39.20953275 11 37 C11.66 37.33 12.32 37.66 13 38 C12.7215625 39.6396875 12.7215625 39.6396875 12.4375 41.3125 C11.7421932 44.93624133 11.7421932 44.93624133 13 48 C13.40157821 51.06346802 13.47544998 53.94199215 13 57 C10.875 59.75 10.875 59.75 8 62 C7.484375 62.46535156 6.96875 62.93070313 6.4375 63.41015625 C2.43767409 67 2.43767409 67 -1 67 C-3.375 64.8125 -3.375 64.8125 -6 62 C-6.9075 61.195625 -7.815 60.39125 -8.75 59.5625 C-11.46059208 56.47543679 -11.9213796 55.08826093 -12 51 C-11.54528571 48.68546329 -10.99337129 46.41133869 -10.4140625 44.125 C-9.90697976 41.52261312 -10.18917557 39.51355574 -11 37 C-8.16867679 37.62918293 -6.45251205 38.32420898 -4.8125 40.7734375 C-3.10956409 44.14174455 -1.88272539 47.33218983 -1 51 C-0.94199172 47.39590081 -0.90640131 43.79192149 -0.875 40.1875 C-0.85824219 39.16333984 -0.84148437 38.13917969 -0.82421875 37.08398438 C-0.81777344 36.10107422 -0.81132812 35.11816406 -0.8046875 34.10546875 C-0.79421387 33.19949951 -0.78374023 32.29353027 -0.77294922 31.36010742 C-0.83834609 28.73063552 -0.83834609 28.73063552 -3 26 C-3.556875 26.309375 -4.11375 26.61875 -4.6875 26.9375 C-7.29872738 28.13725312 -9.1128438 28.86251637 -12 29 C-15.6551814 26.99323374 -17.6785875 25.48211875 -20 22 C-19.8125 18.4375 -19.8125 18.4375 -19 15 C-16 13 -16 13 -13.3125 13.375 C-12.549375 13.58125 -11.78625 13.7875 -11 14 C-10.93941406 13.10023438 -10.87882813 12.20046875 -10.81640625 11.2734375 C-9.78773014 7.14888926 -8.31970347 6.10813672 -4.9375 3.625 C-4.01839844 2.93664062 -3.09929687 2.24828125 -2.15234375 1.5390625 C-1.44207031 1.03117187 -0.73179687 0.52328125 0 0 Z M0 4 C-2.39854369 8.11290369 -2.39854369 8.11290369 -2.9375 12.75 C-2.18602588 15.15800216 -2.18602588 15.15800216 0.0625 16.3125 C0.701875 16.539375 1.34125 16.76625 2 17 C4.09845357 14.73367014 5.01618762 13.64750486 4.9375 10.5 C3.82992505 7.54646679 2.35871993 6.05436898 0 4 Z M-7.6875 8.625 C-9.71353819 11.16054483 -9.99574949 11.78322399 -10.0625 15.1875 C-8.84558108 18.40875597 -8.10857627 19.53206121 -5 21 C-2.3015411 20.77802187 -2.3015411 20.77802187 0 20 C-0.680625 18.989375 -1.36125 17.97875 -2.0625 16.9375 C-4.3257941 13.04622243 -4.07511878 10.39006837 -3 6 C-5.38766873 5.76708683 -5.38766873 5.76708683 -7.6875 8.625 Z M5 6 C5.05220703 6.88751953 5.05220703 6.88751953 5.10546875 7.79296875 C5.27563175 12.7601076 5.16855209 15.90728689 2 20 C4.29294488 20.85974801 4.29294488 20.85974801 7 21 C9.45714369 19.54331238 9.45714369 19.54331238 11 17 C11.75015195 14.04308291 11.75015195 14.04308291 11 11 C8.68726558 8.1028059 8.68726558 8.1028059 6 6 C5.67 6 5.34 6 5 6 Z M-16 15 C-18.17920507 16.81807085 -18.17920507 16.81807085 -18.5 19.3125 C-18.19364098 22.32265265 -18.19364098 22.32265265 -15.25 24.875 C-12.34164234 27.18111622 -12.34164234 27.18111622 -9.8125 27.0625 C-7.56450769 25.7447114 -6.50579477 24.09962932 -5 22 C-6.45365269 20.82750647 -7.91307419 19.66216184 -9.375 18.5 C-10.18710938 17.8503125 -10.99921875 17.200625 -11.8359375 16.53125 C-13.83026843 14.80746385 -13.83026843 14.80746385 -16 15 Z M15 15 C12.35426499 17.22877725 12.35426499 17.22877725 10 20 C9 21 8 22 7 23 C8.66545339 25.16641665 8.66545339 25.16641665 11 27 C14.60142734 27.09003568 15.75849831 26.22879108 18.375 23.75 C20.28654322 21.12513088 20.28654322 21.12513088 19.75 18.1875 C19.5025 17.465625 19.255 16.74375 19 16 C17.27523089 15.04497842 17.27523089 15.04497842 15 15 Z M0 21 C-0.66 22.32 -1.32 23.64 -2 25 C-0.02 25.99 -0.02 25.99 2 27 C2.66 25.68 3.32 24.36 4 23 C2.68 22.34 1.36 21.68 0 21 Z M-8 41 C-10.13244296 49.01420061 -10.13244296 49.01420061 -9 57 C-7.1264261 59.00664022 -5.26629083 60.39471066 -3 62 C-2.67 62 -2.34 62 -2 62 C-2.34789662 54.8021389 -2.90381904 48.56390364 -6 42 C-6.66 41.67 -7.32 41.34 -8 41 Z M8 42 C5.40580544 46.56293948 4.35768927 50.71320798 3.8125 55.875 C3.6897168 56.90753906 3.6897168 56.90753906 3.56445312 57.9609375 C3.36629262 59.63947357 3.18172213 61.31960481 3 63 C8.61497651 59.51501372 8.61497651 59.51501372 12.1875 54.1875 C11.93019634 49.81333771 10.59563549 46.05670041 9 42 C8.67 42 8.34 42 8 42 Z " fill="#756C57" transform="translate(249,123)"/>
<path d="M0 0 C10.57810692 6.57741264 10.57810692 6.57741264 13 11 C13.34829725 15.2492264 13.01675515 19.04648626 12.4375 23.25 C12.07321855 26.37241246 11.9220787 28.12554319 13 31 C10.34278026 30.33569507 8.50771772 29.66303927 6.8125 27.44921875 C4.9962582 24.33089184 3.83884385 21.51095274 3 18 C2.91275294 21.4165052 2.85952675 24.83272313 2.8125 28.25 C2.78736328 29.21808594 2.76222656 30.18617188 2.73632812 31.18359375 C2.72666016 32.11816406 2.71699219 33.05273438 2.70703125 34.015625 C2.6913208 34.87446289 2.67561035 35.73330078 2.65942383 36.61816406 C3.06904051 39.48283816 4.113864 40.85063164 6 43 C6.680625 42.29875 7.36125 41.5975 8.0625 40.875 C11 39 11 39 14.5625 39.375 C18.68417608 41.32342869 20.06881146 42.89622436 22 47 C21.84284437 50.45742385 21.45764557 51.54235443 19 54 C15.875 54.125 15.875 54.125 13 54 C12.91621094 54.74636719 12.83242188 55.49273437 12.74609375 56.26171875 C11.84361495 59.5739577 10.67725729 60.64220417 8.0625 62.8125 C7.35222656 63.41707031 6.64195312 64.02164063 5.91015625 64.64453125 C4 66 4 66 2 66 C2 66.66 2 67.32 2 68 C-3.14868381 65.73457912 -7.87388584 62.68917123 -11 58 C-11 56.68 -11 55.36 -11 54 C-11.928125 54.061875 -12.85625 54.12375 -13.8125 54.1875 C-17 54 -17 54 -18.9375 52.9375 C-20.71006293 49.70517937 -19.96909328 47.45239482 -19 44 C-16.20112527 40.78952605 -14.68583444 40.0721931 -10.4375 39.625 C-7.36139717 39.96057485 -5.56887802 40.35591807 -3 42 C-0.79807776 38.69711664 -0.76040032 37.72537273 -0.8046875 33.89453125 C-0.81113281 32.91162109 -0.81757813 31.92871094 -0.82421875 30.91601562 C-0.84097656 29.89185547 -0.85773438 28.86769531 -0.875 27.8125 C-0.88402344 26.77673828 -0.89304688 25.74097656 -0.90234375 24.67382812 C-0.9259214 22.11565315 -0.9588297 19.55794252 -1 17 C-1.1868335 17.61415771 -1.37366699 18.22831543 -1.56616211 18.86108398 C-1.82147705 19.66876221 -2.07679199 20.47644043 -2.33984375 21.30859375 C-2.58855225 22.10837646 -2.83726074 22.90815918 -3.09350586 23.73217773 C-4.38418929 26.96114579 -6.30665413 28.85913534 -9 31 C-9.66 31 -10.32 31 -11 31 C-10.690625 29.329375 -10.690625 29.329375 -10.375 27.625 C-9.7801169 23.21816861 -10.60124678 19.63386655 -11.8203125 15.39453125 C-12.07238549 12.03538472 -10.99779312 10.66935572 -9 8 C-6.73828125 5.76171875 -6.73828125 5.76171875 -4.3125 3.6875 C-3.50425781 2.99011719 -2.69601563 2.29273438 -1.86328125 1.57421875 C-1.24839844 1.05472656 -0.63351563 0.53523438 0 0 Z M3 5 C4.19118655 15.86996545 4.19118655 15.86996545 8 26 C11.35835262 22.64164738 11.9676191 18.58666393 12.0625 13.9375 C10.53642392 9.71834849 7.6368899 7.51373272 4 5 C3.67 5 3.34 5 3 5 Z M-8.46875 10.30078125 C-10.24524763 11.98129068 -10.24524763 11.98129068 -10.5625 14.8125 C-9.83931659 18.91053931 -9.00508237 22.96172264 -8 27 C-4.89146976 24.46615602 -4.22617795 22.03074854 -3.3125 18.1875 C-3.06113281 17.17042969 -2.80976563 16.15335937 -2.55078125 15.10546875 C-2.00006156 12.00034708 -1.90124044 9.14619748 -2 6 C-4.43410695 6 -6.74326531 8.78391049 -8.46875 10.30078125 Z M-15.1875 43.1875 C-18.20090777 45.67043043 -18.20090777 45.67043043 -18.5 48.6875 C-18.17920507 51.18192915 -18.17920507 51.18192915 -16 53 C-12.79540067 52.88949657 -11.75662241 51.77400652 -9.375 49.5625 C-8.59125 48.716875 -7.8075 47.87125 -7 47 C-6.34 46.34 -5.68 45.68 -5 45 C-6.81222534 42.9375006 -6.81222534 42.9375006 -9 41 C-12.23206279 40.71707875 -12.23206279 40.71707875 -15.1875 43.1875 Z M0 41 C-0.66 42.32 -1.32 43.64 -2 45 C-0.02 45.99 -0.02 45.99 2 47 C2.66 46.01 3.32 45.02 4 44 C3.34 43.01 2.68 42.02 2 41 C1.34 41 0.68 41 0 41 Z M8.8125 43 C8.214375 43.66 7.61625 44.32 7 45 C7.90484792 46.15518918 8.8244206 47.29885406 9.75 48.4375 C10.26046875 49.07558594 10.7709375 49.71367187 11.296875 50.37109375 C13.24102096 52.23051775 14.32626797 52.79473317 17 53 C17.99 52.34 18.98 51.68 20 51 C19.7342546 47.10240081 19.43693229 45.43693229 16.625 42.625 C13.1391639 40.46710146 11.89573649 40.18104092 8.8125 43 Z M-7.875 49.0625 C-10.2868984 51.80950749 -10.2868984 51.80950749 -10.0625 55.0625 C-8.88485116 58.31835266 -7.70503802 59.86875792 -5 62 C-4.34 62 -3.68 62 -3 62 C-3.3403125 60.4221875 -3.3403125 60.4221875 -3.6875 58.8125 C-4.03598825 54.56094341 -3.47920922 53.33739702 -1 50 C-0.67 49.34 -0.34 48.68 0 48 C-3.69845808 46.626287 -4.58496725 46.70225912 -7.875 49.0625 Z M4 47 C3.34 47.66 2.68 48.32 2 49 C2.7425 49.7115625 2.7425 49.7115625 3.5 50.4375 C5.70453669 54.20358351 5.24608113 57.73459379 5 62 C8.62793998 60.13433512 8.62793998 60.13433512 11 57 C11.41673207 53.54199641 11.41673207 53.54199641 11 50 C9.30835778 47.95970404 9.30835778 47.95970404 7 47 C6.01 47 5.02 47 4 47 Z M0 51 C-1.68681738 52.10041919 -1.68681738 52.10041919 -3 54 C-2.75921963 57.85248595 -2.15973378 59.76039934 0 63 C3.03369734 62.31552961 3.03369734 62.31552961 4.25 60.25 C5.20991431 57.37025706 5.046426 55.84029913 4 53 C2.03241727 51.63979849 2.03241727 51.63979849 0 51 Z " fill="#756C57" transform="translate(249,283)"/>
<path d="M0 0 C95.7 0 191.4 0 290 0 C290 0.66 290 1.32 290 2 C194.3 2 98.6 2 0 2 C0 1.34 0 0.68 0 0 Z " fill="#756C57" transform="translate(105,272)"/>
<path d="M0 0 C95.7 0 191.4 0 290 0 C290 0.66 290 1.32 290 2 C194.3 2 98.6 2 0 2 C0 1.34 0 0.68 0 0 Z " fill="#756C57" transform="translate(105,200)"/>
<path d="M0 0 C0 10.23 0 20.46 0 31 C-1.32 31 -2.64 31 -4 31 C-4 28.03 -4 25.06 -4 22 C-7.3 22 -10.6 22 -14 22 C-14.268125 22.7425 -14.53625 23.485 -14.8125 24.25 C-15.98232553 26.95906965 -16.91312362 28.91312362 -19 31 C-21.6875 31.25 -21.6875 31.25 -24 31 C-22.07119658 27.59244728 -20.1723491 24.25852365 -18 21 C-18.61875 20.731875 -19.2375 20.46375 -19.875 20.1875 C-22 19 -22 19 -24 16 C-24.71539456 11.5578989 -24.56389235 8.01934387 -22.375 4.0625 C-15.71179609 -1.72396656 -8.70414392 0 0 0 Z M-18.25 6.0625 C-20.28976011 8.94980921 -20.28976011 8.94980921 -20.125 12.625 C-19.27485002 16.01397542 -19.27485002 16.01397542 -17.0625 17.9375 C-12.60129114 19.48526634 -8.71144874 19.18845795 -4 19 C-4 14.05 -4 9.1 -4 4 C-11.54000114 3.32326555 -11.54000114 3.32326555 -18.25 6.0625 Z " fill="#756C57" transform="translate(313,221)"/>
<path d="M0 0 C0.33 0.99 0.66 1.98 1 3 C-0.43359375 5.04296875 -0.43359375 5.04296875 -2.4375 7.1875 C-3.42556641 8.26064453 -3.42556641 8.26064453 -4.43359375 9.35546875 C-4.95050781 9.89816406 -5.46742188 10.44085938 -6 11 C-3.56167727 10.29441621 -1.12440495 9.58545316 1.3125 8.875 C2.07143555 8.65561768 2.83037109 8.43623535 3.61230469 8.21020508 C7.74241939 7.00397211 11.83456909 5.73513289 15.90234375 4.33203125 C33.93225447 -1.83843011 33.93225447 -1.83843011 43 0 C46.375 2.125 46.375 2.125 48 5 C48 8.1875 48 8.1875 47 11 C44 13 44 13 41.3125 12.625 C40.549375 12.41875 39.78625 12.2125 39 12 C38.505 9.525 38.505 9.525 38 7 C38.66 7 39.32 7 40 7 C40 7.99 40 8.98 40 10 C41.65 9.67 43.3 9.34 45 9 C44.81171228 6.55519921 44.81171228 6.55519921 44 4 C39.26183041 0.83438117 34.33169499 2.0077057 29 3 C23.77610854 4.47502234 18.67535925 6.2447739 13.5625 8.0625 C11.53929352 8.77389095 9.51495893 9.48154252 7.48802185 10.18223572 C5.66704596 10.81280655 3.85011328 11.45501831 2.03344727 12.09790039 C-1 13 -1 13 -5 13 C-5 13.66 -5 14.32 -5 15 C-3.700625 14.938125 -2.40125 14.87625 -1.0625 14.8125 C7.73546225 14.85380499 15.31084431 18.32291514 22 24 C22 24.66 22 25.32 22 26 C7.84890028 24.82844926 -2.66631686 22.26912726 -15 15 C-12.28715791 9.30685252 -9.14269463 3.55111192 -3.125 1 C-2.09375 0.67 -1.0625 0.34 0 0 Z M-5 4 C-6.32 5.32 -7.64 6.64 -9 8 C-8.67 8.66 -8.34 9.32 -8 10 C-6.35 8.35 -4.7 6.7 -3 5 C-3.66 4.67 -4.32 4.34 -5 4 Z M-7 16 C-1.72739376 20.9324381 4.37728177 23.17476025 11.5625 23.1875 C12.696875 23.125625 13.83125 23.06375 15 23 C11.96430182 19.48498105 9.63038154 18.28176676 5.125 17.25 C4.11695313 17.00765625 3.10890625 16.7653125 2.0703125 16.515625 C-1.01480582 15.99751353 -3.87811674 15.90680946 -7 16 Z " fill="#756C57" transform="translate(323,284)"/>
<path d="M0 0 C6.07534109 1.36840835 11.93726184 3.46049659 17.8125 5.5 C19.3906748 6.03173574 20.96944882 6.56169644 22.54882812 7.08984375 C26.37308895 8.3729082 30.18848259 9.67958489 34 11 C34.33 10.67 34.66 10.34 35 10 C34.21625 9.278125 33.4325 8.55625 32.625 7.8125 C30.15587562 5.16700959 29.06739722 3.39626389 28 0 C35.04931907 1.39068199 38.5575056 4.06552402 42.8828125 9.74609375 C44 12 44 12 43.76879883 14.01147461 C42.40720568 17.53328351 38.80822405 18.61778857 35.5625 20.125 C34.81492432 20.47755859 34.06734863 20.83011719 33.29711914 21.19335938 C25.09409885 24.79713617 16.86737384 25.5851521 8 26 C8 25.34 8 24.68 8 24 C16.25010555 17.67442179 23.87739703 15.23014125 34 14 C29.52607709 12.43366528 25.04614586 10.88637267 20.56005859 9.35522461 C19.0397819 8.83352323 17.52116483 8.30695603 16.00439453 7.77514648 C1.49600298 1.98924938 1.49600298 1.98924938 -13.32324219 2.99829102 C-13.87657227 3.32885498 -14.42990234 3.65941895 -15 4 C-15 6.31 -15 8.62 -15 11 C-13.35 11 -11.7 11 -10 11 C-9.67 9.68 -9.34 8.36 -9 7 C-8.375 8.875 -8.375 8.875 -8 11 C-10 13 -10 13 -12.4375 13.375 C-15 13 -15 13 -16.8125 11.3125 C-18.25345562 8.50642852 -18.62124435 7.10622175 -18 4 C-12.46203562 -1.39561464 -7.34684306 -0.9271172 0 0 Z M33 4 C34.04874998 6.62187494 34.64931313 7.79371361 37.125 9.25 C37.74375 9.4975 38.3625 9.745 39 10 C37.95125002 7.37812506 37.35068687 6.20628639 34.875 4.75 C33.946875 4.37875 33.946875 4.37875 33 4 Z M14 22 C14 22.33 14 22.66 14 23 C21.98690546 23.66557546 27.89901418 21.65573373 35 18 C35.66 17.34 36.32 16.68 37 16 C28.44264685 15.54961299 21.13917745 17.34401471 14 22 Z " fill="#756C57" transform="translate(147,284)"/>
<path d="M0 0 C0 0.66 0 1.32 0 2 C-2.07047671 3.31701921 -4.15280911 4.60170553 -6.25 5.875 C-6.8171875 6.23980469 -7.384375 6.60460937 -7.96875 6.98046875 C-13.65003778 10.37689079 -19.49567077 11.19134637 -26 12 C-21.34533514 13.56165656 -16.68631629 15.10929982 -12.02294922 16.64477539 C-10.44098538 17.16774796 -8.86022089 17.69436447 -7.28076172 18.22485352 C6.83126545 23.83109444 6.83126545 23.83109444 21.125 22.5625 C21.74375 22.046875 22.3625 21.53125 23 21 C22.65555119 18.52733235 22.65555119 18.52733235 22 16 C21.34 15.67 20.68 15.34 20 15 C19.34 15.66 18.68 16.32 18 17 C18 17.66 18 18.32 18 19 C17.34 19 16.68 19 16 19 C16.875 14.125 16.875 14.125 18 13 C20.375 12.6875 20.375 12.6875 23 13 C24.875 14.625 24.875 14.625 26 17 C25.9375 20.0625 25.9375 20.0625 25 23 C21.13705788 26.64893469 17.89608285 26.61130956 12.77148438 26.48046875 C4.66135878 25.44727823 -3.02465388 22.58475278 -10.75 20 C-12.52551704 19.4202658 -14.30155601 18.84212752 -16.078125 18.265625 C-20.39165391 16.86207593 -24.6975466 15.43712391 -29 14 C-28.21367187 14.78117188 -27.42734375 15.56234375 -26.6171875 16.3671875 C-22.48644578 20.52259036 -22.48644578 20.52259036 -21 23 C-21.33 23.99 -21.66 24.98 -22 26 C-29.59385298 23.0690392 -32.80706086 18.86593784 -37 12 C-25.80769278 3.09517163 -14.08856209 0 0 0 Z M-21.9453125 5.25 C-24.33188002 6.44668343 -26.67910923 7.68096881 -29 9 C-23.11167239 10.89414734 -16.77658569 9.27659112 -11.28125 6.75 C-9.14230843 5.55869077 -7.05534361 4.32962969 -5 3 C-10.60145293 1.13284902 -16.6264939 2.99267646 -21.9453125 5.25 Z M-31 16 C-29.95125002 18.62187494 -29.35068687 19.79371361 -26.875 21.25 C-26.25625 21.4975 -25.6375 21.745 -25 22 C-26.04874998 19.37812506 -26.64931313 18.20628639 -29.125 16.75 C-30.053125 16.37875 -30.053125 16.37875 -31 16 Z " fill="#756C57" transform="translate(345,164)"/>
<path d="M0 0 C14.22154549 0.37924121 23.6918806 3.98016004 36 11 C34.91873615 16.1900665 32.44909847 20.39072648 27.9609375 23.33984375 C22.75422598 26 22.75422598 26 20 26 C21.39633428 21.55711819 23.60401828 19.13475236 27 16 C27.33 15.67 27.66 15.34 28 15 C22.65224345 16.04542609 17.58063297 17.4138313 12.41796875 19.1640625 C11.23783203 19.56367188 10.05769531 19.96328125 8.84179688 20.375 C6.41367466 21.20557093 3.98912474 22.04666253 1.56835938 22.8984375 C-5.9504558 25.41971684 -13.03419321 27.19777592 -21 26 C-24.25 23.8125 -24.25 23.8125 -26 21 C-26.57085094 18.00303255 -26.48186565 16.73547915 -24.8125 14.1875 C-22.3864306 12.59800625 -20.84602594 12.63512488 -18 13 C-17.34 13.66 -16.68 14.32 -16 15 C-16.375 17.125 -16.375 17.125 -17 19 C-17.33 17.68 -17.66 16.36 -18 15 C-19.65 15 -21.3 15 -23 15 C-23.41746608 17.87364791 -23.41746608 17.87364791 -23 21 C-20.33035817 23.14066787 -18.68566743 23.99114015 -15.24145508 24.03564453 C-6.08594687 22.44306196 2.52666105 19.82862044 11.3125 16.875 C12.74643472 16.4014039 14.18067838 15.92874212 15.61523438 15.45703125 C19.08043827 14.31539777 22.54133428 13.16131316 26 12 C24.48780884 11.7371521 24.48780884 11.7371521 22.94506836 11.46899414 C21.5973831 11.22081353 20.24981422 10.97200037 18.90234375 10.72265625 C18.24085327 10.60942017 17.57936279 10.49618408 16.89782715 10.3795166 C10.41750508 9.15587581 5.01459458 6.32652131 0 2 C0 1.34 0 0.68 0 0 Z M5 2 C12.17279084 8.5003417 19.69042199 9.50371735 29 10 C21.88445166 4.31405954 13.96835386 2.38163208 5 2 Z M30 16 C28.35 17.32 26.7 18.64 25 20 C25.33 20.66 25.66 21.32 26 22 C27.65 20.68 29.3 19.36 31 18 C30.67 17.34 30.34 16.68 30 16 Z " fill="#756C57" transform="translate(155,164)"/>
<path d="M0 0 C1.32 0 2.64 0 4 0 C4 4.62 4 9.24 4 14 C9.94 14 15.88 14 22 14 C22 9.38 22 4.76 22 0 C23.32 0 24.64 0 26 0 C26 10.23 26 20.46 26 31 C24.68 31 23.36 31 22 31 C22 26.71 22 22.42 22 18 C16.06 18 10.12 18 4 18 C4 22.29 4 26.58 4 31 C2.68 31 1.36 31 0 31 C0 20.77 0 10.54 0 0 Z " fill="#756C57" transform="translate(254,221)"/>
<path d="M0 0 C1.32 0 2.64 0 4 0 C5.99624403 4.25301611 7.99000839 8.50718204 9.98144531 12.76245117 C10.65979423 14.21101553 11.33882945 15.6592587 12.01855469 17.10717773 C12.99332789 19.18389936 13.96565752 21.26174934 14.9375 23.33984375 C15.24373291 23.99089584 15.54996582 24.64194794 15.86547852 25.31272888 C18 29.88612829 18 29.88612829 18 31 C16.35 31 14.7 31 13 31 C10 25.25 10 25.25 10 23 C4.72 23.33 -0.56 23.66 -6 24 C-6.99 26.31 -7.98 28.62 -9 31 C-10.65 31 -12.3 31 -14 31 C-12.70577974 26.93443983 -11.21247538 23.0762188 -9.43359375 19.19921875 C-8.94826172 18.14025391 -8.46292969 17.08128906 -7.96289062 15.99023438 C-7.20782227 14.35538086 -7.20782227 14.35538086 -6.4375 12.6875 C-5.93025391 11.57826172 -5.42300781 10.46902344 -4.90039062 9.32617188 C-1.1319533 1.1319533 -1.1319533 1.1319533 0 0 Z M1 6 C0.15973604 7.76755526 -0.67198722 9.53917263 -1.5 11.3125 C-1.9640625 12.29863281 -2.428125 13.28476563 -2.90625 14.30078125 C-4.18777472 16.97800126 -4.18777472 16.97800126 -4 20 C-0.04 20 3.92 20 8 20 C7.2169216 17.85101768 6.42328757 15.70587905 5.625 13.5625 C5.18414062 12.36753906 4.74328125 11.17257813 4.2890625 9.94140625 C3.32914764 6.89803102 3.32914764 6.89803102 1 6 Z " fill="#756C57" transform="translate(229,221)"/>
<path d="M0 0 C1.17546556 0.65102708 2.34561699 1.31228246 3.5 2 C2.51 3.485 2.51 3.485 1.5 5 C-0.66874252 4.49396008 -2.49967627 4.00016187 -4.5 3 C-9.25691878 2.72556238 -13.17874386 2.88961909 -17.5 5 C-19.90168313 8.82085953 -19.89473412 12.57897781 -19.5 17 C-18.18407862 20.04739688 -16.85508251 21.6866919 -14.375 23.875 C-10.28078526 25.47708403 -6.73184576 25.00686134 -2.5 24 C-1.14642612 23.37545219 0.19437741 22.71942469 1.5 22 C2.16 22.99 2.82 23.98 3.5 25 C-0.3414668 28.96951569 -3.68243774 29.77346575 -9.00390625 30.09765625 C-14.21603174 29.89373898 -17.52524004 27.84761736 -21.375 24.5 C-24.84139905 20.42188347 -24.85201848 16.71451615 -24.76953125 11.5703125 C-24.35554667 7.62245956 -23.23172939 4.89287073 -20.5 2 C-13.93596546 -2.89398151 -7.28941534 -3.59337376 0 0 Z " fill="#756C57" transform="translate(208.5,223)"/>
<path d="M0 0 C2.70877895 1.84989782 3.67145151 2.63133029 4.5625 5.75 C5 8.75 5 8.75 4.5625 11.75 C2.00315969 14.52871234 0.53969051 15.66313862 -3.25 16 C-3.971875 15.9175 -4.69375 15.835 -5.4375 15.75 C-5.4375 15.09 -5.4375 14.43 -5.4375 13.75 C-3.1275 13.09 -0.8175 12.43 1.5625 11.75 C1.79678313 6.9602679 1.79678313 6.9602679 -0.4375 2.75 C-10.40247571 -0.57165857 -20.22718585 3.55949033 -29.1875 8 C-30.26 8.5775 -31.3325 9.155 -32.4375 9.75 C-31.59960938 9.42257813 -30.76171875 9.09515625 -29.8984375 8.7578125 C-26.1062069 7.65352864 -23.00196457 7.55067048 -19.0625 7.625 C-17.81726563 7.64304688 -16.57203125 7.66109375 -15.2890625 7.6796875 C-13.87753906 7.71449219 -13.87753906 7.71449219 -12.4375 7.75 C-16.8391368 12.4031589 -19.85760207 15.56048742 -26.42578125 16.04296875 C-27.86748091 16.02321944 -29.30903998 15.98772113 -30.75 15.9375 C-31.86084961 15.91719727 -31.86084961 15.91719727 -32.99414062 15.89648438 C-34.80891075 15.86135979 -36.62330288 15.80755972 -38.4375 15.75 C-38.7675 15.09 -39.0975 14.43 -39.4375 13.75 C-39.89125 14.245 -40.345 14.74 -40.8125 15.25 C-42.4375 16.75 -42.4375 16.75 -44.4375 16.75 C-42.95207294 12.2424972 -39.38783467 10.50248702 -35.5 8.25 C-34.8299292 7.85490234 -34.1598584 7.45980469 -33.46948242 7.05273438 C-23.583451 1.36652768 -11.36908761 -4.13421367 0 0 Z M-27.625 10.125 C-28.91470703 10.50785156 -28.91470703 10.50785156 -30.23046875 10.8984375 C-32.59851185 11.64090304 -32.59851185 11.64090304 -34.4375 13.75 C-28.56264042 14.83358521 -24.61647518 15.2868611 -19.4375 11.75 C-18.7775 10.76 -18.1175 9.77 -17.4375 8.75 C-21.12155055 8.60448992 -24.10313199 9.04872566 -27.625 10.125 Z " fill="#756C57" transform="translate(300.4375,173.25)"/>
<path d="M0 0 C3.92510917 0.58149765 6.15007824 2.29257432 9 5 C13.1785687 10.9892818 14.9653593 16.68707269 14 24 C12.69926686 27.78088753 10.93682902 30.9243815 8.3125 33.9375 C4.74928288 35.57465381 0.9219351 36.33224496 -3 36 C-4.77734375 34.7578125 -4.77734375 34.7578125 -6 33 C-6 31.68 -6 30.36 -6 29 C-5.34 29 -4.68 29 -4 29 C-3.67 30.32 -3.34 31.64 -3 33 C1.03645882 33.31658501 3.32333195 33.4210379 6.8125 31.25 C9.57714631 28.4063638 10.89254897 26.41835358 11.1953125 22.421875 C11.17210937 21.54015625 11.14890625 20.6584375 11.125 19.75 C11.09792969 18.41195313 11.09792969 18.41195313 11.0703125 17.046875 C11.04710937 16.37140625 11.02390625 15.6959375 11 15 C10.90203125 15.67546875 10.8040625 16.3509375 10.703125 17.046875 C9.49230769 24.27002653 9.49230769 24.27002653 7.1875 27.6875 C5 29 5 29 2.25 28.75 C1.5075 28.5025 0.765 28.255 0 28 C0.33 27.01 0.66 26.02 1 25 C2.65 25.33 4.3 25.66 6 26 C7.83318113 20.82395917 8.62063451 16.39527691 7 11 C5.54786756 8.16681854 3.84395357 5.59072605 2 3 C1.34 2.01 0.68 1.02 0 0 Z " fill="#756C57" transform="translate(288,306)"/>
<path d="M0 0 C-1.17309786 2.54171204 -2.4908497 4.72883744 -4.0625 7.0625 C-7.08561497 11.64593237 -7.4236104 15.62340648 -7 21 C-6.07669938 23.92378529 -5.51939985 24.69447068 -2.875 26.25 C-2.25625 26.4975 -1.6375 26.745 -1 27 C-1 26.34 -1 25.68 -1 25 C-0.34 25 0.32 25 1 25 C0.34 26.32 -0.32 27.64 -1 29 C-3.88441135 28.69095593 -5.0176954 27.98382135 -7.1875 26 C-9.5739889 22.04994941 -9.80204766 18.54300628 -10 14 C-10.8998566 22.35911258 -10.8998566 22.35911258 -7.625 29.6875 C-3.56995659 33.25980015 -1.34727273 33.09902357 4 33 C4.33 31.68 4.66 30.36 5 29 C5.66 29 6.32 29 7 29 C6.25 33.75 6.25 33.75 4 36 C-0.58855761 36.35790749 -4.78205963 35.61117185 -8.4375 32.75 C-12.87236692 27.99063062 -13.46941498 23.9821688 -13.30859375 17.625 C-12.45498923 10.36395903 -9.19256449 5.51322335 -3.5859375 0.99609375 C-2 0 -2 0 0 0 Z " fill="#756C57" transform="translate(211,306)"/>
<path d="M0 0 C1.9375 1.25 1.9375 1.25 3 3 C3 4.32 3 5.64 3 7 C2.34 7 1.68 7 1 7 C0.67 5.68 0.34 4.36 0 3 C-6.38775382 2.51210968 -6.38775382 2.51210968 -12 5 C-14.25891958 8.95310926 -14.17558828 12.52249882 -14 17 C-13.5875 15.906875 -13.175 14.81375 -12.75 13.6875 C-11.39714409 10.48984058 -10.05944156 8.79346574 -7 7 C-5.68 7.66 -4.36 8.32 -3 9 C-3 9.66 -3 10.32 -3 11 C-3.66 11 -4.32 11 -5 11 C-5 10.34 -5 9.68 -5 9 C-7.61164437 9.95760294 -8.8032279 10.69078669 -10.3125 13.0625 C-11.61782461 18.63979607 -10.92170077 23.83299305 -8.0625 28.8125 C-7.381875 29.864375 -6.70125 30.91625 -6 32 C-5.3197633 33.32646156 -4.64507739 34.65608877 -4 36 C-9.64232452 34.67239423 -12.02377372 30.61270115 -15 26 C-17.69337577 21.34780549 -17.53797567 16.23685689 -17 11 C-14.09204679 2.73529088 -8.48922367 -0.59573499 0 0 Z " fill="#756C57" transform="translate(215,132)"/>
<path d="M0 0 C4.84793734 2.28138228 7.19256593 5.07839164 9.30859375 9.859375 C11.37834302 16.2674123 9.97121382 22.1081462 7 28 C4.74724406 31.27012959 2.45958228 33.99121029 -1 36 C-1.99 35.67 -2.98 35.34 -4 35 C-3.59007812 34.49210937 -3.18015625 33.98421875 -2.7578125 33.4609375 C1.43293693 28.10720498 4.42923458 23.84834495 3.75 16.8125 C3.2432294 12.94920716 3.2432294 12.94920716 1 10 C-0.65 10.33 -2.3 10.66 -4 11 C-4 10.01 -4 9.02 -4 8 C-2.3125 7.25 -2.3125 7.25 0 7 C2.625 8.3125 2.625 8.3125 5 11 C6.00551812 14.29500554 6.56356024 17.58665027 7 21 C7.36308044 15.89670273 7.58277658 12.12536167 5.1875 7.5 C3.06495548 4.85486935 3.06495548 4.85486935 0 3 C-2.33199388 2.92094936 -4.66832622 2.91201231 -7 3 C-7.33 4.32 -7.66 5.64 -8 7 C-8.66 7 -9.32 7 -10 7 C-9.625 4.0625 -9.625 4.0625 -9 1 C-5.89046621 -0.5547669 -3.43733239 -0.28644437 0 0 Z M5 24 C6 26 6 26 6 26 Z " fill="#756C57" transform="translate(292,132)"/>
<path d="M0 0 C0.66 0 1.32 0 2 0 C5.73707539 3.80612066 8.57403577 7.65484981 10.1875 12.75 C9.95749078 16.73682655 8.78226705 18.21773295 6 21 C7.32 22.65 8.64 24.3 10 26 C9.67 26.66 9.34 27.32 9 28 C7.29115995 26.37660195 5.62553283 24.70680947 4 23 C4 22.34 4 21.68 4 21 C3.113125 21.103125 2.22625 21.20625 1.3125 21.3125 C-2 21 -2 21 -4.75 19.125 C-8.24997161 14.26392832 -9 8.92493189 -9 3 C-7.6078125 3.0928125 -7.6078125 3.0928125 -6.1875 3.1875 C-3.02056752 3.32377263 -3.02056752 3.32377263 -1.25 1.5 C-0.8375 1.005 -0.425 0.51 0 0 Z M0 3 C-2.45193779 6.67790669 -2.71511798 9.72592275 -2 14 C-0.16343011 16.96731398 -0.16343011 16.96731398 2 19 C3.65 18.67 5.3 18.34 7 18 C7.84841349 15.28507683 8.31592122 13.7707845 8 11 C6.0283697 7.96062353 3.68510333 5.42667789 1 3 C0.67 3 0.34 3 0 3 Z M-7 5 C-6.71905418 6.8141927 -6.42493567 8.62635001 -6.125 10.4375 C-5.96257812 11.44683594 -5.80015625 12.45617187 -5.6328125 13.49609375 C-5.31957031 14.73552734 -5.31957031 14.73552734 -5 16 C-4.34 16.33 -3.68 16.66 -3 17 C-3 13.04 -3 9.08 -3 5 C-4.32 5 -5.64 5 -7 5 Z " fill="#756C57" transform="translate(223,150)"/>
<path d="M0 0 C0.66 0 1.32 0 2 0 C0.79618552 2.49361571 -0.45428722 4.68143083 -2 7 C-1.34 7.53625 -0.68 8.0725 0 8.625 C2 11 2 11 2.625 13.75 C1.71411005 18.48662776 -0.9912181 21.34425204 -4 25 C-4.66 25.99 -5.32 26.98 -6 28 C-9.875 26.125 -9.875 26.125 -11 25 C-13.32817964 24.63239269 -15.6618385 24.29758419 -18 24 C-17.43489766 21.72456133 -16.84724015 19.45471548 -16.25 17.1875 C-15.92515625 15.92292969 -15.6003125 14.65835937 -15.265625 13.35546875 C-13.95278372 9.87481858 -13.25888477 8.67881942 -10 7 C-6.75 6.8125 -6.75 6.8125 -4 7 C-3.71125 6.401875 -3.4225 5.80375 -3.125 5.1875 C-2 3 -2 3 0 0 Z M-7.625 10.375 C-10.21718772 13.43849457 -10.1779107 15.97905151 -10.328125 19.9296875 C-9.90652711 22.58976945 -8.7242658 23.97625646 -7 26 C-1.9504983 20.42594961 -1.9504983 20.42594961 0.625 13.5625 C0.22337893 10.66003685 0.22337893 10.66003685 -3 9 C-5.97308574 8.67702888 -5.97308574 8.67702888 -7.625 10.375 Z M-12 11 C-13.80317221 14.96697886 -14.49202991 18.6822542 -15 23 C-13.68 23 -12.36 23 -11 23 C-11 19.04 -11 15.08 -11 11 C-11.33 11 -11.66 11 -12 11 Z " fill="#756C57" transform="translate(231,296)"/>
<path d="M0 0 C3.875 1.875 3.875 1.875 5 3 C6.66617115 3.04063832 8.33388095 3.042721 10 3 C11.20796397 6.6238919 10.70132272 8.318379 9.8125 12 C9.57144531 13.051875 9.33039063 14.10375 9.08203125 15.1875 C7.8555803 18.37538693 7.01781951 19.44766838 4 21 C1.74609375 21.1796875 1.74609375 21.1796875 -0.5625 20.875 C-1.32691406 20.78992188 -2.09132813 20.70484375 -2.87890625 20.6171875 C-5.39447773 19.88521643 -6.40653131 19.06068945 -8 17 C-8.6875 13.9375 -8.6875 13.9375 -8 10 C-5.60348073 6.41827404 -2.88293595 3.19825707 0 0 Z M-1.5078125 4.28515625 C-4.48901279 7.56159618 -5.89885707 9.31447572 -6.5625 13.8125 C-6.2840625 15.3903125 -6.2840625 15.3903125 -6 17 C-3.32186369 19.22274553 -3.32186369 19.22274553 -1 18.875 C1.72826303 17.68138492 2.60911017 16.64269068 4 14 C4.38018947 9.74187788 4.33479983 6.64812473 2 3 C-0.07651116 2.78377399 -0.07651116 2.78377399 -1.5078125 4.28515625 Z M5 5 C5.020625 6.216875 5.04125 7.43375 5.0625 8.6875 C5.06824116 11.91977322 4.78766315 14.84934741 4 18 C6.96527758 15.5546615 7.55582214 13.55397653 8.1875 9.8125 C8.34605469 8.91144531 8.50460937 8.01039063 8.66796875 7.08203125 C8.77753906 6.39496094 8.88710938 5.70789063 9 5 C7.68 5 6.36 5 5 5 Z " fill="#756C57" transform="translate(275,150)"/>
<path d="M0 0 C2.78548652 2.75763166 3.00330228 5.30705994 3.703125 9.12109375 C3.94546875 10.39339844 4.1878125 11.66570312 4.4375 12.9765625 C4.60765625 13.95238281 4.7778125 14.92820312 4.953125 15.93359375 C3.70649169 16.44192966 2.45563113 16.9399052 1.203125 17.43359375 C0.50703125 17.71203125 -0.1890625 17.99046875 -0.90625 18.27734375 C-3.046875 18.93359375 -3.046875 18.93359375 -7.046875 18.93359375 C-8.71484375 17.25390625 -8.71484375 17.25390625 -10.234375 15.05859375 C-10.74355469 14.33929688 -11.25273437 13.62 -11.77734375 12.87890625 C-14.0632736 9.37615835 -14.39037271 7.14144072 -14.046875 2.93359375 C-12.59548832 0.82908307 -11.55797152 0.12099581 -9.171875 -0.75390625 C-3.14753035 -1.63983929 -3.14753035 -1.63983929 0 0 Z M-12.046875 2.93359375 C-12.76045046 6.26361259 -12.50011344 8.2031573 -10.69921875 11.10546875 C-9.20241695 13.10120449 -7.66541072 15.03566794 -6.046875 16.93359375 C-5.056875 16.60359375 -4.066875 16.27359375 -3.046875 15.93359375 C-1.84496599 12.32786671 -1.72017185 9.72335025 -2.046875 5.93359375 C-3.70393076 2.96430226 -3.70393076 2.96430226 -6.046875 0.93359375 C-9.23177507 0.65624365 -9.23177507 0.65624365 -12.046875 2.93359375 Z M-2.046875 1.93359375 C-1.9746875 2.70445312 -1.9025 3.4753125 -1.828125 4.26953125 C-1.7353125 5.27242188 -1.6425 6.2753125 -1.546875 7.30859375 C-1.4540625 8.30632812 -1.36125 9.3040625 -1.265625 10.33203125 C-1.046875 12.93359375 -1.046875 12.93359375 -1.046875 14.93359375 C0.273125 14.60359375 1.593125 14.27359375 2.953125 13.93359375 C2.69788626 12.30607144 2.42338006 10.68156179 2.140625 9.05859375 C1.98980469 8.15367187 1.83898437 7.24875 1.68359375 6.31640625 C1.12261199 3.58946897 1.12261199 3.58946897 -2.046875 1.93359375 Z " fill="#756C57" transform="translate(281.046875,304.06640625)"/>
<path d="M0 0 C5.20022925 2.7495465 10.3123355 5.88629722 14.8125 9.6875 C14.8125 10.3475 14.8125 11.0075 14.8125 11.6875 C11.77577842 10.2364557 8.88898923 8.57654108 5.98999023 6.86938477 C-3.96140172 1.03441581 -14.26294123 -4.63745097 -26.1875 -3.3125 C-29.15259533 -2.30207782 -29.15259533 -2.30207782 -31.1875 -0.3125 C-32.26022562 2.13289786 -32.26022562 2.13289786 -32.1875 4.6875 C-30.47857501 8.00210705 -30.47857501 8.00210705 -27.0625 8.375 C-26.11375 8.478125 -25.165 8.58125 -24.1875 8.6875 C-24.1875 9.3475 -24.1875 10.0075 -24.1875 10.6875 C-27.68394963 11.00535906 -29.584902 11.08394605 -32.5625 9.125 C-34.83720619 5.71294071 -34.82284983 3.71138226 -34.1875 -0.3125 C-25.26093507 -11.41039153 -10.87335399 -5.17126442 0 0 Z " fill="#756C57" transform="translate(229.1875,178.3125)"/>
<path d="M0 0 C0 0.66 0 1.32 0 2 C-2.05326324 3.54602217 -4.08283927 4.94206473 -6.25 6.3125 C-7.19866943 6.9159021 -7.19866943 6.9159021 -8.16650391 7.53149414 C-13.85251769 11.06052322 -19.67623313 13.79037971 -26 16 C-26.71671875 16.25652344 -27.4334375 16.51304687 -28.171875 16.77734375 C-33.46269821 18.39633565 -38.67800125 18.39668235 -44 17 C-47.125 14.875 -47.125 14.875 -49 12 C-49.64073066 7.94203913 -49.66853286 5.96565857 -47.3125 2.5625 C-44.61589191 0.74046751 -43.18873549 0.64569606 -40 1 C-39.67 1.66 -39.34 2.32 -39 3 C-40.423125 3.0928125 -40.423125 3.0928125 -41.875 3.1875 C-45.13490524 3.67286457 -45.13490524 3.67286457 -46.5625 6.25 C-47.26242297 9.06696923 -47.26242297 9.06696923 -45.8125 11.75 C-44.12619585 14.2581635 -44.12619585 14.2581635 -41 15 C-28.04221354 16.19979504 -14.17133512 9.78596356 -4.25 1.78125 C-2 0 -2 0 0 0 Z " fill="#756C57" transform="translate(244,284)"/>
<path d="M0 0 C3.0367823 1.45107332 5.92359489 3.11110685 8.82275391 4.81811523 C21.85295816 12.46528353 21.85295816 12.46528353 36.5 15.1875 C37.62921875 15.20876953 37.62921875 15.20876953 38.78125 15.23046875 C41.28876311 14.97000524 42.86903174 14.33185516 45 13 C46.35439668 10.29120665 46.06501451 7.99066732 46 5 C42.6136749 3.49069817 42.6136749 3.49069817 39 3 C39 2.34 39 1.68 39 1 C42.53677664 0.67847485 44.3962104 0.5868808 47.375 2.625 C49.46476653 5.67927416 49.45476766 7.36185869 49 11 C48.13778631 14.35305324 47.05701947 14.96481778 44.0625 16.8125 C35.75144609 19.91415105 27.08854131 16.73294536 19.2890625 13.53125 C12.58771475 10.41138264 5.65710271 6.81852043 0 2 C0 1.34 0 0.68 0 0 Z " fill="#756C57" transform="translate(256,284)"/>
<path d="M0 0 C5.22600955 2.66357906 8.00419699 6.86415347 9.81640625 12.30078125 C9.88443592 14.02873477 9.9013627 15.7591349 9.87890625 17.48828125 C9.86988281 18.38933594 9.86085938 19.29039062 9.8515625 20.21875 C9.83996094 20.90582031 9.82835937 21.59289062 9.81640625 22.30078125 C9.15640625 22.30078125 8.49640625 22.30078125 7.81640625 22.30078125 C7.76033203 21.32238281 7.76033203 21.32238281 7.703125 20.32421875 C7.3067343 15.05455417 6.89507081 10.75953681 3.81640625 6.30078125 C-1.4618879 2.23209618 -5.50181548 0.64355716 -12.18359375 1.30078125 C-17.73280086 3.51632289 -21.1958621 6.68758338 -23.57421875 12.1640625 C-24.56693389 15.64492905 -24.44067064 18.70170473 -24.18359375 22.30078125 C-24.84359375 22.30078125 -25.50359375 22.30078125 -26.18359375 22.30078125 C-26.94025835 10.67757225 -26.94025835 10.67757225 -23.55859375 5.8046875 C-17.24654292 -1.0991181 -8.9615685 -2.86962569 0 0 Z " fill="#756C57" transform="translate(258.18359375,112.69921875)"/>
<path d="M0 0 C0.66 0 1.32 0 2 0 C1.9175 1.155 1.835 2.31 1.75 3.5 C1.7673231 8.38511298 3.15688246 12.04245059 6 16 C9.82677284 19.24443785 12.97583882 20.79903355 18 21 C23.86483798 20.35220724 27.15197784 18.64026202 31 14 C33.18994248 10.71508627 33.35277339 9.16904361 33.625 5.3125 C33.69976562 4.31863281 33.77453125 3.32476562 33.8515625 2.30078125 C33.90054688 1.54152344 33.94953125 0.78226562 34 0 C34.66 0 35.32 0 36 0 C36.58243451 10.91525424 36.58243451 10.91525424 33 16 C28.38824821 20.63355676 24.89010417 23.12644969 18.1875 23.25 C12.81203187 23.16417975 9.22262726 22.25923524 5.33984375 18.3125 C1.3949461 13.83602039 -0.13315331 11.45118436 -0.0625 5.375 C-0.05347656 4.37210937 -0.04445312 3.36921875 -0.03515625 2.3359375 C-0.02355469 1.56507813 -0.01195312 0.79421875 0 0 Z " fill="#756C57" transform="translate(232,339)"/>
<path d="M0 0 C2.70942393 -0.10861833 5.414439 -0.18758577 8.125 -0.25 C8.88554687 -0.28351563 9.64609375 -0.31703125 10.4296875 -0.3515625 C17.0961284 -0.46650114 20.51497358 1.64576444 25.375 6.25 C25.91125 6.8275 26.4475 7.405 27 8 C16.91579516 8.80554299 9.49981423 7.74593396 1 2 C0.67 1.34 0.34 0.68 0 0 Z M6 3 C11.66748157 5.83374078 16.69732561 6.63223832 23 7 C20.22979973 3.9219997 17.98393307 2.19517992 14 1 C10.23312136 1 9.08809695 1.23537317 6 3 Z " fill="#756C57" transform="translate(261,285)"/>
<path d="M0 0 C0.79277344 0.01353516 1.58554688 0.02707031 2.40234375 0.04101562 C4.35185564 0.07624777 6.30101626 0.13005179 8.25 0.1875 C7.25 3.1875 7.25 3.1875 5.54296875 4.3203125 C4.84816406 4.64773438 4.15335938 4.97515625 3.4375 5.3125 C2.75042969 5.64507812 2.06335938 5.97765625 1.35546875 6.3203125 C-3.02643573 8.12510433 -6.75173598 8.29748264 -11.5 8.25 C-12.67046875 8.24097656 -13.8409375 8.23195313 -15.046875 8.22265625 C-15.93890625 8.21105469 -16.8309375 8.19945312 -17.75 8.1875 C-17.75 7.5275 -17.75 6.8675 -17.75 6.1875 C-16.11209288 5.14105934 -14.43991979 4.1476817 -12.75 3.1875 C-12.21375 2.66414063 -11.6775 2.14078125 -11.125 1.6015625 C-7.5178843 -0.54609521 -4.11092818 -0.13294046 0 0 Z M-11.75 4.1875 C-12.41 5.1775 -13.07 6.1675 -13.75 7.1875 C-7.44732561 6.81973832 -2.41748157 6.02124078 3.25 3.1875 C-2.33737082 -0.00528332 -6.21484176 1.41992088 -11.75 4.1875 Z " fill="#756C57" transform="translate(229.75,284.8125)"/>
<path d="M0 0 C10.30249325 -0.82298023 17.17801802 0.57108801 26 6 C26 6.66 26 7.32 26 8 C23.28996573 8.1358035 20.58681059 8.23444624 17.875 8.3125 C17.11445313 8.35439453 16.35390625 8.39628906 15.5703125 8.43945312 C11.3898049 8.52955027 8.87116588 8.32570964 5.6328125 5.54296875 C4.76398438 4.70378906 3.89515625 3.86460937 3 3 C2.01 2.67 1.02 2.34 0 2 C0 1.34 0 0.68 0 0 Z M4 1 C6.72936523 4.32641387 8.73156719 6.28485683 13 6.875 C16.15186624 7.09586941 18.93864734 6.86100544 22 6 C18.06760685 2.06760685 11.78249194 1.09219786 6.375 0.8125 C5.59125 0.874375 4.8075 0.93625 4 1 Z " fill="#756C57" transform="translate(212,181)"/>
<path d="M0 0 C4.20900191 -0.42090019 7.0777306 -0.38948433 10.5 2.125 C13 5 13 5 12.875 8.3125 C12.441875 9.6428125 12.441875 9.6428125 12 11 C8.75 11.8125 8.75 11.8125 5 12 C1.73896582 9.25386595 1.07310726 7.37162859 0.25 3.1875 C0.1675 2.135625 0.085 1.08375 0 0 Z M2 2 C2.54723683 5.37462715 3.0549 7.08235 5 10 C7.58380177 10.25030977 7.58380177 10.25030977 10 10 C10.77242269 8.16299211 10.77242269 8.16299211 11 6 C10.00484776 4.16884106 10.00484776 4.16884106 8 3 C4.89160979 2.2730774 4.89160979 2.2730774 2 2 Z " fill="#756C57" transform="translate(187,159)"/>
<path d="M0 0 C-0.25662245 1.44010481 -0.53090821 2.8770687 -0.8125 4.3125 C-0.96332031 5.11300781 -1.11414063 5.91351563 -1.26953125 6.73828125 C-2.09287476 9.28756409 -2.87625434 10.38923639 -5 12 C-8.0625 12.3125 -8.0625 12.3125 -11 12 C-13 10 -13 10 -13.375 7.625 C-12.88457253 4.19200774 -11.66908277 3.13526622 -9 1 C-5.8035914 -0.06546953 -3.34252724 -0.07427838 0 0 Z M-11 5 C-10.67 6.65 -10.34 8.3 -10 10 C-8.35 10 -6.7 10 -5 10 C-2.7986134 6.19572508 -2.7986134 6.19572508 -2 2 C-6.09590633 1.65867447 -7.92807025 2.26939578 -11 5 Z " fill="#756C57" transform="translate(313,159)"/>
<path d="M0 0 C3.125 0.4375 3.125 0.4375 5.4375 2.5 C7.37665093 5.87555902 7.82263318 8.58232309 8.125 12.4375 C0.08625041 12.09396369 0.08625041 12.09396369 -3.4375 9.6875 C-5.15947351 6.99223712 -5.37101221 5.57891064 -4.875 2.4375 C-2.875 0.4375 -2.875 0.4375 0 0 Z M-0.875 1.4375 C-3.15027322 3.25360691 -3.15027322 3.25360691 -2.9375 5.875 C-2.03191761 8.84322524 -2.03191761 8.84322524 1.6875 10.25 C2.821875 10.641875 3.95625 11.03375 5.125 11.4375 C6.48840881 8.40159637 6.48840881 8.40159637 4.9375 5.3125 C3.4309579 2.36145973 3.4309579 2.36145973 1.0625 1.4375 C0.423125 1.4375 -0.21625 1.4375 -0.875 1.4375 Z " fill="#756C57" transform="translate(304.875,302.5625)"/>
<path d="M0 0 C1.423125 0.2475 1.423125 0.2475 2.875 0.5 C4.875 3.5 4.875 3.5 4.875 5.9375 C3.41659232 9.67466969 1.39762798 10.70545367 -2.125 12.5 C-5.5 12.75 -5.5 12.75 -8.125 12.5 C-7.64606632 6.39359553 -6.78118061 1.0849889 0 0 Z M-2.125 1.5 C-4.48380914 4.20472904 -4.48380914 4.20472904 -6.125 7.5 C-6.01056744 9.81026274 -6.01056744 9.81026274 -5.125 11.5 C-1.59807328 10.36983745 -1.59807328 10.36983745 1.875 8.5 C3.10500198 6.02429495 3.10500198 6.02429495 2.875 3.5 C2.215 2.84 1.555 2.18 0.875 1.5 C-0.115 1.5 -1.105 1.5 -2.125 1.5 Z " fill="#756C57" transform="translate(195.125,302.5)"/>
</svg>
